<svg width="340" height="315" viewBox="0 0 340 315" fill="none" xmlns="http://www.w3.org/2000/svg">
<path fill-rule="evenodd" clip-rule="evenodd" d="M115.864 87.6667C115.864 55.8182 141.668 30 173.5 30C205.331 30 231.136 55.8182 231.136 87.6667C231.136 119.515 205.331 145.333 173.5 145.333H58.2273C50.2694 145.333 43.8182 138.879 43.8182 130.917C43.8182 122.955 50.2694 116.5 58.2273 116.5L173.5 116.5C189.416 116.5 202.318 103.591 202.318 87.6667C202.318 71.7424 189.416 58.8333 173.5 58.8333C157.584 58.8333 144.682 71.7424 144.682 87.6667V89.1083C144.682 97.0704 138.231 103.525 130.273 103.525C122.315 103.525 115.864 97.0704 115.864 89.1083L115.864 87.6667ZM258.514 102.083C258.514 94.1213 264.965 87.6667 272.923 87.6667H274.364C306.195 87.6667 332 113.485 332 145.333C332 177.181 306.195 203 274.364 203L87.0455 203C79.0876 203 72.6364 196.546 72.6364 188.583C72.6364 180.621 79.0876 174.167 87.0455 174.167L274.364 174.167C290.28 174.167 303.182 161.258 303.182 145.333C303.182 129.409 290.28 116.5 274.364 116.5H272.923C264.965 116.5 258.514 110.045 258.514 102.083ZM15 188.583C15 180.621 21.4512 174.167 29.4091 174.167H43.8182C51.776 174.167 58.2273 180.621 58.2273 188.583C58.2273 196.546 51.776 203 43.8182 203H29.4091C21.4512 203 15 196.546 15 188.583Z" fill="#4BA3E3"/>
<rect x="15" y="223" width="104" height="26" rx="13" fill="#4BA3E3"/>
<rect x="136" y="223" width="191" height="26" rx="13" fill="#4BA3E3"/>
</svg>
