<svg width="151" height="48" viewBox="0 0 151 48" fill="none" xmlns="http://www.w3.org/2000/svg">
<circle cx="24.4019" cy="24.1176" r="23" fill="white" stroke="#C2C4CB"/>
<circle cx="58.5836" cy="24.1176" r="23" fill="white" stroke="#C2C4CB"/>
<circle cx="92.7654" cy="24.1176" r="23" fill="white" stroke="#C2C4CB"/>
<circle cx="126.947" cy="24.1176" r="23" fill="white" stroke="#C2C4CB"/>
<path d="M139.112 35.0665C139.034 35.2018 138.922 35.3142 138.787 35.3923C138.651 35.4705 138.498 35.5116 138.341 35.5116H116.978C116.822 35.5114 116.668 35.4701 116.533 35.392C116.398 35.3138 116.286 35.2014 116.208 35.0661C116.13 34.9308 116.088 34.7774 116.089 34.6212C116.089 34.465 116.13 34.3116 116.208 34.1763C117.902 31.2466 120.514 29.1459 123.562 28.15C122.054 27.2526 120.883 25.8851 120.228 24.2576C119.573 22.6301 119.47 20.8325 119.935 19.141C120.401 17.4494 121.408 15.9574 122.804 14.894C124.199 13.8306 125.905 13.2547 127.66 13.2547C129.414 13.2547 131.12 13.8306 132.515 14.894C133.911 15.9574 134.919 17.4494 135.384 19.141C135.849 20.8325 135.747 22.6301 135.091 24.2576C134.436 25.8851 133.265 27.2526 131.758 28.15C134.805 29.1459 137.417 31.2466 139.111 34.1763C139.19 34.3115 139.231 34.465 139.231 34.6213C139.231 34.7775 139.19 34.9311 139.112 35.0665Z" fill="#DEE3EE"/>
</svg>
