<svg width="264" height="162" viewBox="0 0 264 162" fill="none" xmlns="http://www.w3.org/2000/svg">
<g filter="url(#filter0_d_471_184)">
<rect x="11" y="8" width="240" height="138" fill="white"/>
<rect x="12" y="9" width="238" height="136" stroke="#6741D9" stroke-width="2"/>
</g>
<circle cx="55" cy="52" r="20" fill="#D9D9D9"/>
<path d="M91.546 50V48.25H92.148C92.596 48.25 92.9507 48.124 93.212 47.872C93.4827 47.6107 93.618 47.2653 93.618 46.836V39.57H95.536V46.766C95.536 47.41 95.396 47.9747 95.116 48.46C94.8453 48.9453 94.4533 49.3233 93.94 49.594C93.436 49.8647 92.8387 50 92.148 50H91.546ZM101.074 50.168C100.327 50.168 99.6461 49.9953 99.0301 49.65C98.4234 49.3047 97.9381 48.8333 97.5741 48.236C97.2194 47.6387 97.0421 46.9573 97.0421 46.192C97.0421 45.4267 97.2194 44.7453 97.5741 44.148C97.9381 43.5507 98.4234 43.0793 99.0301 42.734C99.6368 42.3887 100.318 42.216 101.074 42.216C101.821 42.216 102.497 42.3887 103.104 42.734C103.711 43.0793 104.191 43.5507 104.546 44.148C104.91 44.736 105.092 45.4173 105.092 46.192C105.092 46.9573 104.91 47.6387 104.546 48.236C104.182 48.8333 103.697 49.3047 103.09 49.65C102.483 49.9953 101.811 50.168 101.074 50.168ZM101.074 48.488C101.485 48.488 101.844 48.39 102.152 48.194C102.469 47.998 102.717 47.7273 102.894 47.382C103.081 47.0273 103.174 46.6307 103.174 46.192C103.174 45.744 103.081 45.352 102.894 45.016C102.717 44.6707 102.469 44.4 102.152 44.204C101.844 43.9987 101.485 43.896 101.074 43.896C100.654 43.896 100.285 43.9987 99.9681 44.204C99.6508 44.4 99.3988 44.6707 99.2121 45.016C99.0348 45.352 98.9461 45.744 98.9461 46.192C98.9461 46.6307 99.0348 47.0273 99.2121 47.382C99.3988 47.7273 99.6508 47.998 99.9681 48.194C100.285 48.39 100.654 48.488 101.074 48.488ZM106.483 50V39.402H108.317V43.882L108.065 43.616C108.242 43.1587 108.532 42.8133 108.933 42.58C109.344 42.3373 109.82 42.216 110.361 42.216C110.921 42.216 111.416 42.3373 111.845 42.58C112.284 42.8227 112.624 43.1633 112.867 43.602C113.11 44.0313 113.231 44.5307 113.231 45.1V50H111.397V45.534C111.397 45.198 111.332 44.9087 111.201 44.666C111.07 44.4233 110.888 44.2367 110.655 44.106C110.431 43.966 110.165 43.896 109.857 43.896C109.558 43.896 109.292 43.966 109.059 44.106C108.826 44.2367 108.644 44.4233 108.513 44.666C108.382 44.9087 108.317 45.198 108.317 45.534V50H106.483ZM114.782 50V42.384H116.504V43.882L116.364 43.616C116.541 43.1587 116.83 42.8133 117.232 42.58C117.642 42.3373 118.118 42.216 118.66 42.216C119.22 42.216 119.714 42.3373 120.144 42.58C120.582 42.8227 120.923 43.1633 121.166 43.602C121.408 44.0313 121.53 44.5307 121.53 45.1V50H119.696V45.534C119.696 45.198 119.63 44.9087 119.5 44.666C119.369 44.4233 119.187 44.2367 118.954 44.106C118.73 43.966 118.464 43.896 118.156 43.896C117.857 43.896 117.591 43.966 117.358 44.106C117.124 44.2367 116.942 44.4233 116.812 44.666C116.681 44.9087 116.616 45.198 116.616 45.534V50H114.782ZM125.723 50V39.57H129.125C130.226 39.57 131.183 39.794 131.995 40.242C132.816 40.6807 133.451 41.292 133.899 42.076C134.347 42.8507 134.571 43.7513 134.571 44.778C134.571 45.7953 134.347 46.7007 133.899 47.494C133.451 48.278 132.816 48.894 131.995 49.342C131.183 49.7807 130.226 50 129.125 50H125.723ZM127.627 48.32H129.167C129.876 48.32 130.488 48.1753 131.001 47.886C131.524 47.5873 131.93 47.1767 132.219 46.654C132.508 46.122 132.653 45.4967 132.653 44.778C132.653 44.05 132.508 43.4247 132.219 42.902C131.93 42.3793 131.524 41.9733 131.001 41.684C130.488 41.3947 129.876 41.25 129.167 41.25H127.627V48.32ZM139.656 50.168C138.909 50.168 138.228 49.9953 137.612 49.65C137.005 49.3047 136.52 48.8333 136.156 48.236C135.801 47.6387 135.624 46.9573 135.624 46.192C135.624 45.4267 135.801 44.7453 136.156 44.148C136.52 43.5507 137.005 43.0793 137.612 42.734C138.219 42.3887 138.9 42.216 139.656 42.216C140.403 42.216 141.079 42.3887 141.686 42.734C142.293 43.0793 142.773 43.5507 143.128 44.148C143.492 44.736 143.674 45.4173 143.674 46.192C143.674 46.9573 143.492 47.6387 143.128 48.236C142.764 48.8333 142.279 49.3047 141.672 49.65C141.065 49.9953 140.393 50.168 139.656 50.168ZM139.656 48.488C140.067 48.488 140.426 48.39 140.734 48.194C141.051 47.998 141.299 47.7273 141.476 47.382C141.663 47.0273 141.756 46.6307 141.756 46.192C141.756 45.744 141.663 45.352 141.476 45.016C141.299 44.6707 141.051 44.4 140.734 44.204C140.426 43.9987 140.067 43.896 139.656 43.896C139.236 43.896 138.867 43.9987 138.55 44.204C138.233 44.4 137.981 44.6707 137.794 45.016C137.617 45.352 137.528 45.744 137.528 46.192C137.528 46.6307 137.617 47.0273 137.794 47.382C137.981 47.7273 138.233 47.998 138.55 48.194C138.867 48.39 139.236 48.488 139.656 48.488ZM148.677 50.168C147.893 50.168 147.207 49.9907 146.619 49.636C146.031 49.2813 145.574 48.8007 145.247 48.194C144.92 47.5873 144.757 46.9153 144.757 46.178C144.757 45.4127 144.92 44.736 145.247 44.148C145.583 43.5507 146.036 43.0793 146.605 42.734C147.184 42.3887 147.828 42.216 148.537 42.216C149.134 42.216 149.657 42.314 150.105 42.51C150.562 42.706 150.95 42.9767 151.267 43.322C151.584 43.6673 151.827 44.064 151.995 44.512C152.163 44.9507 152.247 45.4267 152.247 45.94C152.247 46.0707 152.238 46.206 152.219 46.346C152.21 46.486 152.186 46.6073 152.149 46.71H146.269V45.31H151.113L150.245 45.968C150.329 45.5387 150.306 45.156 150.175 44.82C150.054 44.484 149.848 44.218 149.559 44.022C149.279 43.826 148.938 43.728 148.537 43.728C148.154 43.728 147.814 43.826 147.515 44.022C147.216 44.2087 146.988 44.4887 146.829 44.862C146.68 45.226 146.624 45.6693 146.661 46.192C146.624 46.6587 146.684 47.074 146.843 47.438C147.011 47.7927 147.254 48.068 147.571 48.264C147.898 48.46 148.271 48.558 148.691 48.558C149.111 48.558 149.466 48.4693 149.755 48.292C150.054 48.1147 150.287 47.8767 150.455 47.578L151.939 48.306C151.79 48.67 151.556 48.992 151.239 49.272C150.922 49.552 150.544 49.7713 150.105 49.93C149.676 50.0887 149.2 50.168 148.677 50.168Z" fill="#183153"/>
<path d="M36.232 103V92.57H37.352V103H36.232ZM42.53 103.084C41.858 103.084 41.34 102.888 40.976 102.496C40.612 102.104 40.43 101.544 40.43 100.816V96.546H39.044V95.496H39.394C39.7114 95.496 39.9634 95.3933 40.15 95.188C40.3367 94.9733 40.43 94.7073 40.43 94.39V93.76H41.48V95.496H43.132V96.546H41.48V100.816C41.48 101.068 41.5174 101.292 41.592 101.488C41.6667 101.675 41.7927 101.824 41.97 101.936C42.1567 102.048 42.404 102.104 42.712 102.104C42.7867 102.104 42.8754 102.099 42.978 102.09C43.0807 102.081 43.1694 102.071 43.244 102.062V103C43.132 103.028 43.006 103.047 42.866 103.056C42.726 103.075 42.614 103.084 42.53 103.084ZM45.1298 95.79V95.3C45.4098 95.2253 45.6104 95.09 45.7318 94.894C45.8624 94.6887 45.9324 94.4273 45.9418 94.11H45.4098V92.57H46.5298V93.746C46.5298 94.2873 46.4131 94.7353 46.1798 95.09C45.9464 95.4447 45.5964 95.678 45.1298 95.79ZM51.4652 103.168C50.7465 103.168 50.1165 102.986 49.5752 102.622C49.0339 102.258 48.6419 101.763 48.3992 101.138L49.2812 100.718C49.4959 101.175 49.7945 101.539 50.1772 101.81C50.5692 102.081 50.9985 102.216 51.4652 102.216C51.9132 102.216 52.2912 102.109 52.5992 101.894C52.9072 101.67 53.0612 101.381 53.0612 101.026C53.0612 100.765 52.9865 100.559 52.8372 100.41C52.6879 100.251 52.5152 100.13 52.3192 100.046C52.1232 99.962 51.9505 99.9013 51.8012 99.864L50.7232 99.556C50.0325 99.36 49.5332 99.0847 49.2252 98.73C48.9172 98.3753 48.7632 97.9647 48.7632 97.498C48.7632 97.0593 48.8752 96.6767 49.0992 96.35C49.3232 96.0233 49.6265 95.7713 50.0092 95.594C50.3919 95.4167 50.8165 95.328 51.2832 95.328C51.9179 95.328 52.4919 95.496 53.0052 95.832C53.5279 96.1587 53.8965 96.616 54.1112 97.204L53.2152 97.624C53.0285 97.204 52.7579 96.8773 52.4032 96.644C52.0579 96.4013 51.6705 96.28 51.2412 96.28C50.8212 96.28 50.4852 96.3873 50.2332 96.602C49.9812 96.8167 49.8552 97.0873 49.8552 97.414C49.8552 97.666 49.9205 97.8667 50.0512 98.016C50.1819 98.1653 50.3312 98.2773 50.4992 98.352C50.6765 98.4267 50.8305 98.4827 50.9612 98.52L52.2072 98.884C52.8139 99.0613 53.2852 99.3367 53.6212 99.71C53.9665 100.083 54.1392 100.522 54.1392 101.026C54.1392 101.437 54.0225 101.805 53.7892 102.132C53.5652 102.459 53.2525 102.715 52.8512 102.902C52.4499 103.079 51.9879 103.168 51.4652 103.168ZM58.3632 103V92.402H59.4132V103H58.3632ZM61.5624 103V95.496H62.6124V103H61.5624ZM61.5624 94.11V92.57H62.6124V94.11H61.5624ZM64.7616 103V92.402H65.8116V99.822L65.3636 99.752L69.5776 95.496H70.9356L67.9956 98.506L71.2016 103H69.9416L66.9316 98.842L67.6036 98.898L65.4616 101.11L65.8116 100.242V103H64.7616ZM75.7108 103.168C75.0108 103.168 74.3761 103 73.8068 102.664C73.2468 102.319 72.8035 101.847 72.4768 101.25C72.1501 100.653 71.9868 99.976 71.9868 99.22C71.9868 98.464 72.1455 97.7967 72.4628 97.218C72.7801 96.63 73.2095 96.168 73.7508 95.832C74.3015 95.496 74.9175 95.328 75.5988 95.328C76.1401 95.328 76.6208 95.4307 77.0408 95.636C77.4701 95.832 77.8341 96.1027 78.1328 96.448C78.4315 96.784 78.6601 97.1667 78.8188 97.596C78.9775 98.016 79.0568 98.45 79.0568 98.898C79.0568 98.9913 79.0521 99.0987 79.0428 99.22C79.0335 99.332 79.0195 99.4487 79.0008 99.57H72.6588V98.59H78.3988L77.8948 99.01C77.9788 98.4967 77.9181 98.0393 77.7128 97.638C77.5168 97.2273 77.2321 96.9053 76.8588 96.672C76.4855 96.4293 76.0655 96.308 75.5988 96.308C75.1321 96.308 74.6981 96.4293 74.2968 96.672C73.9048 96.9147 73.5968 97.2553 73.3728 97.694C73.1488 98.1233 73.0601 98.6367 73.1068 99.234C73.0601 99.8313 73.1535 100.354 73.3868 100.802C73.6295 101.241 73.9561 101.581 74.3668 101.824C74.7868 102.067 75.2348 102.188 75.7108 102.188C76.2615 102.188 76.7235 102.057 77.0968 101.796C77.4701 101.535 77.7735 101.208 78.0068 100.816L78.9028 101.292C78.7535 101.628 78.5248 101.941 78.2168 102.23C77.9088 102.51 77.5401 102.739 77.1108 102.916C76.6908 103.084 76.2241 103.168 75.7108 103.168ZM88.957 105.898C88.1357 105.898 87.3703 105.749 86.661 105.45C85.961 105.161 85.345 104.75 84.813 104.218C84.281 103.686 83.8657 103.07 83.567 102.37C83.2777 101.661 83.133 100.9 83.133 100.088C83.133 99.276 83.2823 98.52 83.581 97.82C83.8797 97.12 84.2903 96.5087 84.813 95.986C85.345 95.4633 85.9657 95.0573 86.675 94.768C87.3843 94.4693 88.145 94.32 88.957 94.32C89.797 94.32 90.5717 94.4787 91.281 94.796C91.9903 95.104 92.6017 95.5287 93.115 96.07C93.6377 96.602 94.039 97.2087 94.319 97.89C94.6083 98.5713 94.753 99.2853 94.753 100.032C94.753 100.62 94.6597 101.138 94.473 101.586C94.2957 102.025 94.0343 102.37 93.689 102.622C93.3437 102.874 92.9283 103 92.443 103C92.1537 103 91.8783 102.949 91.617 102.846C91.3557 102.734 91.1317 102.58 90.945 102.384C90.7677 102.179 90.6463 101.936 90.581 101.656L90.805 101.838C90.6557 102.09 90.469 102.305 90.245 102.482C90.0303 102.65 89.7877 102.781 89.517 102.874C89.2463 102.958 88.9523 103 88.635 103C88.0937 103 87.6037 102.869 87.165 102.608C86.7357 102.347 86.395 101.992 86.143 101.544C85.891 101.096 85.765 100.587 85.765 100.018C85.765 99.4487 85.891 98.94 86.143 98.492C86.395 98.044 86.7357 97.6893 87.165 97.428C87.6037 97.1573 88.0937 97.022 88.635 97.022C89.0923 97.022 89.5077 97.1153 89.881 97.302C90.2637 97.4887 90.567 97.75 90.791 98.086L90.693 98.254V97.162H91.603V101.026C91.603 101.371 91.6777 101.623 91.827 101.782C91.9857 101.941 92.1957 102.02 92.457 102.02C92.849 102.02 93.1523 101.857 93.367 101.53C93.591 101.203 93.703 100.713 93.703 100.06C93.703 99.388 93.5863 98.7627 93.353 98.184C93.1197 97.6053 92.793 97.1013 92.373 96.672C91.953 96.2427 91.4537 95.9067 90.875 95.664C90.2963 95.4213 89.657 95.3 88.957 95.3C88.2757 95.3 87.641 95.4213 87.053 95.664C86.4743 95.8973 85.9703 96.2287 85.541 96.658C85.1117 97.0873 84.7757 97.5913 84.533 98.17C84.2997 98.7487 84.183 99.3833 84.183 100.074C84.183 100.746 84.295 101.376 84.519 101.964C84.7523 102.543 85.079 103.051 85.499 103.49C85.9283 103.938 86.437 104.288 87.025 104.54C87.613 104.792 88.2663 104.918 88.985 104.918C89.405 104.918 89.811 104.871 90.203 104.778C90.595 104.694 90.9497 104.563 91.267 104.386L91.715 105.226C90.9217 105.674 90.0023 105.898 88.957 105.898ZM88.677 102.02C89.041 102.02 89.363 101.931 89.643 101.754C89.923 101.577 90.1423 101.339 90.301 101.04C90.469 100.732 90.553 100.387 90.553 100.004C90.553 99.4253 90.3757 98.954 90.021 98.59C89.6663 98.2167 89.2183 98.03 88.677 98.03C88.3223 98.03 88.0003 98.1187 87.711 98.296C87.431 98.464 87.2117 98.6973 87.053 98.996C86.8943 99.2947 86.815 99.6353 86.815 100.018C86.815 100.391 86.8943 100.732 87.053 101.04C87.221 101.339 87.445 101.577 87.725 101.754C88.005 101.931 88.3223 102.02 88.677 102.02ZM96.4429 103V92.57H102.883V93.62H97.5629V97.246H102.463V98.296H97.5629V103H96.4429ZM104.424 103V95.496H105.474V103H104.424ZM104.424 94.11V92.57H105.474V94.11H104.424ZM111.179 106.08C110.666 106.08 110.19 106.001 109.751 105.842C109.322 105.683 108.948 105.464 108.631 105.184C108.323 104.913 108.085 104.596 107.917 104.232L108.883 103.714C109.032 104.069 109.298 104.377 109.681 104.638C110.064 104.899 110.554 105.03 111.151 105.03C111.608 105.03 112.028 104.941 112.411 104.764C112.794 104.587 113.102 104.325 113.335 103.98C113.568 103.635 113.685 103.21 113.685 102.706V101.04L113.853 101.194C113.592 101.735 113.204 102.155 112.691 102.454C112.178 102.743 111.618 102.888 111.011 102.888C110.311 102.888 109.681 102.72 109.121 102.384C108.561 102.048 108.118 101.595 107.791 101.026C107.474 100.447 107.315 99.808 107.315 99.108C107.315 98.3987 107.474 97.7593 107.791 97.19C108.118 96.6207 108.556 96.168 109.107 95.832C109.667 95.496 110.302 95.328 111.011 95.328C111.618 95.328 112.168 95.468 112.663 95.748C113.167 96.028 113.564 96.406 113.853 96.882L113.685 97.176V95.496H114.735V102.706C114.735 103.35 114.581 103.924 114.273 104.428C113.974 104.941 113.554 105.343 113.013 105.632C112.481 105.931 111.87 106.08 111.179 106.08ZM111.067 101.838C111.552 101.838 111.991 101.717 112.383 101.474C112.775 101.222 113.088 100.891 113.321 100.48C113.564 100.06 113.685 99.6027 113.685 99.108C113.685 98.6133 113.564 98.1607 113.321 97.75C113.088 97.33 112.775 96.9987 112.383 96.756C111.991 96.504 111.552 96.378 111.067 96.378C110.572 96.378 110.124 96.504 109.723 96.756C109.322 96.9987 109.004 97.3253 108.771 97.736C108.547 98.1467 108.435 98.604 108.435 99.108C108.435 99.6027 108.547 100.06 108.771 100.48C109.004 100.891 109.317 101.222 109.709 101.474C110.11 101.717 110.563 101.838 111.067 101.838ZM116.892 103V95.496H117.942V96.924L117.774 96.714C117.98 96.2753 118.283 95.9347 118.684 95.692C119.095 95.4493 119.543 95.328 120.028 95.328C120.607 95.328 121.13 95.4913 121.596 95.818C122.063 96.1447 122.394 96.5693 122.59 97.092L122.296 97.106C122.483 96.5273 122.805 96.0887 123.262 95.79C123.729 95.482 124.242 95.328 124.802 95.328C125.306 95.328 125.768 95.4493 126.188 95.692C126.618 95.9347 126.958 96.2707 127.21 96.7C127.472 97.12 127.602 97.596 127.602 98.128V103H126.552V98.534C126.552 98.0767 126.468 97.6893 126.3 97.372C126.142 97.0547 125.922 96.812 125.642 96.644C125.362 96.4667 125.04 96.378 124.676 96.378C124.322 96.378 124 96.4667 123.71 96.644C123.421 96.812 123.192 97.0593 123.024 97.386C122.856 97.7033 122.772 98.086 122.772 98.534V103H121.722V98.534C121.722 98.0767 121.638 97.6893 121.47 97.372C121.312 97.0547 121.092 96.812 120.812 96.644C120.532 96.4667 120.21 96.378 119.846 96.378C119.482 96.378 119.156 96.4667 118.866 96.644C118.586 96.812 118.362 97.0593 118.194 97.386C118.026 97.7033 117.942 98.086 117.942 98.534V103H116.892ZM131.777 103.168C131.301 103.168 130.877 103.079 130.503 102.902C130.13 102.715 129.836 102.463 129.621 102.146C129.407 101.829 129.299 101.465 129.299 101.054C129.299 100.662 129.383 100.307 129.551 99.99C129.719 99.6633 129.981 99.388 130.335 99.164C130.69 98.94 131.143 98.7813 131.693 98.688L134.633 98.198V99.15L131.945 99.598C131.404 99.6913 131.012 99.864 130.769 100.116C130.536 100.368 130.419 100.667 130.419 101.012C130.419 101.348 130.55 101.633 130.811 101.866C131.082 102.099 131.427 102.216 131.847 102.216C132.361 102.216 132.809 102.109 133.191 101.894C133.574 101.67 133.873 101.371 134.087 100.998C134.302 100.625 134.409 100.209 134.409 99.752V97.848C134.409 97.4 134.246 97.036 133.919 96.756C133.593 96.476 133.168 96.336 132.645 96.336C132.188 96.336 131.787 96.4527 131.441 96.686C131.096 96.91 130.839 97.204 130.671 97.568L129.719 97.05C129.859 96.7327 130.079 96.4433 130.377 96.182C130.685 95.9207 131.035 95.7153 131.427 95.566C131.819 95.4073 132.225 95.328 132.645 95.328C133.196 95.328 133.681 95.4353 134.101 95.65C134.531 95.8647 134.862 96.1633 135.095 96.546C135.338 96.9193 135.459 97.3533 135.459 97.848V103H134.409V101.502L134.563 101.656C134.433 101.936 134.227 102.193 133.947 102.426C133.677 102.65 133.355 102.832 132.981 102.972C132.617 103.103 132.216 103.168 131.777 103.168ZM143.792 103.168C143.148 103.168 142.565 103.023 142.042 102.734C141.529 102.435 141.141 102.015 140.88 101.474L141.048 101.32V103H139.998V92.402H141.048V97.176L140.88 96.882C141.179 96.406 141.575 96.028 142.07 95.748C142.574 95.468 143.148 95.328 143.792 95.328C144.501 95.328 145.131 95.5007 145.682 95.846C146.242 96.182 146.681 96.644 146.998 97.232C147.325 97.82 147.488 98.492 147.488 99.248C147.488 99.9947 147.325 100.667 146.998 101.264C146.681 101.852 146.242 102.319 145.682 102.664C145.131 103 144.501 103.168 143.792 103.168ZM143.736 102.118C144.24 102.118 144.688 101.992 145.08 101.74C145.481 101.488 145.794 101.147 146.018 100.718C146.251 100.279 146.368 99.7893 146.368 99.248C146.368 98.6973 146.251 98.2073 146.018 97.778C145.794 97.3487 145.481 97.008 145.08 96.756C144.688 96.504 144.24 96.378 143.736 96.378C143.232 96.378 142.775 96.504 142.364 96.756C141.963 97.008 141.641 97.3533 141.398 97.792C141.165 98.2213 141.048 98.7067 141.048 99.248C141.048 99.7893 141.165 100.279 141.398 100.718C141.641 101.147 141.963 101.488 142.364 101.74C142.775 101.992 143.232 102.118 143.736 102.118ZM151.996 103.168C151.473 103.168 150.997 103.047 150.568 102.804C150.138 102.552 149.798 102.207 149.546 101.768C149.303 101.32 149.182 100.807 149.182 100.228V95.496H150.232V100.102C150.232 100.503 150.311 100.858 150.47 101.166C150.638 101.465 150.866 101.698 151.156 101.866C151.454 102.034 151.795 102.118 152.178 102.118C152.56 102.118 152.901 102.034 153.2 101.866C153.498 101.689 153.732 101.441 153.9 101.124C154.068 100.797 154.152 100.41 154.152 99.962V95.496H155.202V103H154.152V101.544L154.39 101.6C154.212 102.085 153.909 102.468 153.48 102.748C153.05 103.028 152.556 103.168 151.996 103.168ZM160.231 103.084C159.559 103.084 159.041 102.888 158.677 102.496C158.313 102.104 158.131 101.544 158.131 100.816V96.546H156.745V95.496H157.095C157.413 95.496 157.665 95.3933 157.851 95.188C158.038 94.9733 158.131 94.7073 158.131 94.39V93.76H159.181V95.496H160.833V96.546H159.181V100.816C159.181 101.068 159.219 101.292 159.293 101.488C159.368 101.675 159.494 101.824 159.671 101.936C159.858 102.048 160.105 102.104 160.413 102.104C160.488 102.104 160.577 102.099 160.679 102.09C160.782 102.081 160.871 102.071 160.945 102.062V103C160.833 103.028 160.707 103.047 160.567 103.056C160.427 103.075 160.315 103.084 160.231 103.084ZM165.322 106.08C165.173 106.08 165.019 106.066 164.86 106.038C164.711 106.019 164.561 105.982 164.412 105.926V104.946C164.505 104.955 164.622 104.969 164.762 104.988C164.911 105.016 165.061 105.03 165.21 105.03C165.667 105.03 166.017 104.932 166.26 104.736C166.503 104.549 166.741 104.185 166.974 103.644L167.45 102.524L167.422 103.448L164.244 95.496H165.378L167.982 102.062H167.688L170.278 95.496H171.44L168.01 103.952C167.861 104.316 167.669 104.661 167.436 104.988C167.212 105.315 166.927 105.576 166.582 105.772C166.237 105.977 165.817 106.08 165.322 106.08ZM176.051 103.168C175.342 103.168 174.698 103 174.119 102.664C173.54 102.319 173.078 101.852 172.733 101.264C172.397 100.667 172.229 99.99 172.229 99.234C172.229 98.4873 172.397 97.82 172.733 97.232C173.069 96.644 173.522 96.182 174.091 95.846C174.67 95.5007 175.323 95.328 176.051 95.328C176.779 95.328 177.428 95.496 177.997 95.832C178.576 96.168 179.028 96.63 179.355 97.218C179.691 97.806 179.859 98.478 179.859 99.234C179.859 99.9993 179.686 100.681 179.341 101.278C178.996 101.866 178.534 102.328 177.955 102.664C177.386 103 176.751 103.168 176.051 103.168ZM176.051 102.118C176.555 102.118 177.008 101.992 177.409 101.74C177.82 101.488 178.142 101.143 178.375 100.704C178.618 100.265 178.739 99.7753 178.739 99.234C178.739 98.6927 178.618 98.2073 178.375 97.778C178.142 97.3487 177.82 97.008 177.409 96.756C177.008 96.504 176.555 96.378 176.051 96.378C175.547 96.378 175.09 96.504 174.679 96.756C174.278 97.008 173.956 97.3487 173.713 97.778C173.47 98.2073 173.349 98.6927 173.349 99.234C173.349 99.7753 173.47 100.265 173.713 100.704C173.956 101.143 174.278 101.488 174.679 101.74C175.09 101.992 175.547 102.118 176.051 102.118ZM184.371 103.168C183.848 103.168 183.372 103.047 182.943 102.804C182.513 102.552 182.173 102.207 181.921 101.768C181.678 101.32 181.557 100.807 181.557 100.228V95.496H182.607V100.102C182.607 100.503 182.686 100.858 182.845 101.166C183.013 101.465 183.241 101.698 183.531 101.866C183.829 102.034 184.17 102.118 184.553 102.118C184.935 102.118 185.276 102.034 185.575 101.866C185.873 101.689 186.107 101.441 186.275 101.124C186.443 100.797 186.527 100.41 186.527 99.962V95.496H187.577V103H186.527V101.544L186.765 101.6C186.587 102.085 186.284 102.468 185.855 102.748C185.425 103.028 184.931 103.168 184.371 103.168ZM189.778 95.79V95.3C190.058 95.2253 190.259 95.09 190.38 94.894C190.511 94.6887 190.581 94.4273 190.59 94.11H190.058V92.57H191.178V93.746C191.178 94.2873 191.062 94.7353 190.828 95.09C190.595 95.4447 190.245 95.678 189.778 95.79ZM193.51 103V95.496H194.56V96.728L194.42 96.546C194.597 96.1913 194.863 95.9113 195.218 95.706C195.582 95.5007 196.02 95.398 196.534 95.398H197.01V96.448H196.352C195.81 96.448 195.376 96.616 195.05 96.952C194.723 97.288 194.56 97.764 194.56 98.38V103H193.51ZM201.656 103.168C200.956 103.168 200.321 103 199.752 102.664C199.192 102.319 198.749 101.847 198.422 101.25C198.095 100.653 197.932 99.976 197.932 99.22C197.932 98.464 198.091 97.7967 198.408 97.218C198.725 96.63 199.155 96.168 199.696 95.832C200.247 95.496 200.863 95.328 201.544 95.328C202.085 95.328 202.566 95.4307 202.986 95.636C203.415 95.832 203.779 96.1027 204.078 96.448C204.377 96.784 204.605 97.1667 204.764 97.596C204.923 98.016 205.002 98.45 205.002 98.898C205.002 98.9913 204.997 99.0987 204.988 99.22C204.979 99.332 204.965 99.4487 204.946 99.57H198.604V98.59H204.344L203.84 99.01C203.924 98.4967 203.863 98.0393 203.658 97.638C203.462 97.2273 203.177 96.9053 202.804 96.672C202.431 96.4293 202.011 96.308 201.544 96.308C201.077 96.308 200.643 96.4293 200.242 96.672C199.85 96.9147 199.542 97.2553 199.318 97.694C199.094 98.1233 199.005 98.6367 199.052 99.234C199.005 99.8313 199.099 100.354 199.332 100.802C199.575 101.241 199.901 101.581 200.312 101.824C200.732 102.067 201.18 102.188 201.656 102.188C202.207 102.188 202.669 102.057 203.042 101.796C203.415 101.535 203.719 101.208 203.952 100.816L204.848 101.292C204.699 101.628 204.47 101.941 204.162 102.23C203.854 102.51 203.485 102.739 203.056 102.916C202.636 103.084 202.169 103.168 201.656 103.168ZM38.248 121.168C37.772 121.168 37.3473 121.079 36.974 120.902C36.6007 120.715 36.3067 120.463 36.092 120.146C35.8773 119.829 35.77 119.465 35.77 119.054C35.77 118.662 35.854 118.307 36.022 117.99C36.19 117.663 36.4513 117.388 36.806 117.164C37.1607 116.94 37.6133 116.781 38.164 116.688L41.104 116.198V117.15L38.416 117.598C37.8747 117.691 37.4827 117.864 37.24 118.116C37.0067 118.368 36.89 118.667 36.89 119.012C36.89 119.348 37.0207 119.633 37.282 119.866C37.5527 120.099 37.898 120.216 38.318 120.216C38.8313 120.216 39.2793 120.109 39.662 119.894C40.0447 119.67 40.3433 119.371 40.558 118.998C40.7727 118.625 40.88 118.209 40.88 117.752V115.848C40.88 115.4 40.7167 115.036 40.39 114.756C40.0633 114.476 39.6387 114.336 39.116 114.336C38.6587 114.336 38.2573 114.453 37.912 114.686C37.5667 114.91 37.31 115.204 37.142 115.568L36.19 115.05C36.33 114.733 36.5493 114.443 36.848 114.182C37.156 113.921 37.506 113.715 37.898 113.566C38.29 113.407 38.696 113.328 39.116 113.328C39.6667 113.328 40.152 113.435 40.572 113.65C41.0013 113.865 41.3327 114.163 41.566 114.546C41.8087 114.919 41.93 115.353 41.93 115.848V121H40.88V119.502L41.034 119.656C40.9033 119.936 40.698 120.193 40.418 120.426C40.1473 120.65 39.8253 120.832 39.452 120.972C39.088 121.103 38.6867 121.168 38.248 121.168ZM47.5197 121.168C46.7824 121.168 46.1337 120.995 45.5737 120.65C45.0137 120.305 44.5751 119.838 44.2577 119.25C43.9404 118.653 43.7817 117.981 43.7817 117.234C43.7817 116.487 43.9404 115.82 44.2577 115.232C44.5751 114.644 45.0137 114.182 45.5737 113.846C46.1337 113.501 46.7824 113.328 47.5197 113.328C47.9864 113.328 48.4251 113.412 48.8357 113.58C49.2464 113.748 49.6104 113.977 49.9277 114.266C50.2451 114.546 50.4831 114.873 50.6417 115.246L49.6897 115.736C49.5031 115.335 49.2184 115.008 48.8357 114.756C48.4531 114.504 48.0144 114.378 47.5197 114.378C47.0251 114.378 46.5771 114.504 46.1757 114.756C45.7837 114.999 45.4711 115.339 45.2377 115.778C45.0137 116.207 44.9017 116.697 44.9017 117.248C44.9017 117.789 45.0137 118.279 45.2377 118.718C45.4711 119.147 45.7837 119.488 46.1757 119.74C46.5771 119.992 47.0251 120.118 47.5197 120.118C48.0144 120.118 48.4484 119.992 48.8217 119.74C49.2044 119.488 49.4937 119.152 49.6897 118.732L50.6417 119.25C50.4831 119.614 50.2451 119.941 49.9277 120.23C49.6104 120.519 49.2464 120.748 48.8357 120.916C48.4251 121.084 47.9864 121.168 47.5197 121.168ZM55.3543 121.084C54.6823 121.084 54.1643 120.888 53.8003 120.496C53.4363 120.104 53.2542 119.544 53.2542 118.816V114.546H51.8682V113.496H52.2183C52.5356 113.496 52.7876 113.393 52.9743 113.188C53.1609 112.973 53.2542 112.707 53.2542 112.39V111.76H54.3043V113.496H55.9563V114.546H54.3043V118.816C54.3043 119.068 54.3416 119.292 54.4163 119.488C54.4909 119.675 54.6169 119.824 54.7943 119.936C54.9809 120.048 55.2283 120.104 55.5363 120.104C55.6109 120.104 55.6996 120.099 55.8023 120.09C55.9049 120.081 55.9936 120.071 56.0683 120.062V121C55.9563 121.028 55.8303 121.047 55.6903 121.056C55.5503 121.075 55.4383 121.084 55.3543 121.084ZM60.572 121.168C60.0493 121.168 59.5733 121.047 59.144 120.804C58.7147 120.552 58.374 120.207 58.122 119.768C57.8793 119.32 57.758 118.807 57.758 118.228V113.496H58.808V118.102C58.808 118.503 58.8873 118.858 59.046 119.166C59.214 119.465 59.4427 119.698 59.732 119.866C60.0307 120.034 60.3713 120.118 60.754 120.118C61.1367 120.118 61.4773 120.034 61.776 119.866C62.0747 119.689 62.308 119.441 62.476 119.124C62.644 118.797 62.728 118.41 62.728 117.962V113.496H63.778V121H62.728V119.544L62.966 119.6C62.7887 120.085 62.4853 120.468 62.056 120.748C61.6267 121.028 61.132 121.168 60.572 121.168ZM68.1074 121.168C67.6314 121.168 67.2067 121.079 66.8334 120.902C66.46 120.715 66.166 120.463 65.9514 120.146C65.7367 119.829 65.6294 119.465 65.6294 119.054C65.6294 118.662 65.7134 118.307 65.8814 117.99C66.0494 117.663 66.3107 117.388 66.6654 117.164C67.02 116.94 67.4727 116.781 68.0234 116.688L70.9634 116.198V117.15L68.2754 117.598C67.734 117.691 67.342 117.864 67.0994 118.116C66.866 118.368 66.7494 118.667 66.7494 119.012C66.7494 119.348 66.88 119.633 67.1414 119.866C67.412 120.099 67.7574 120.216 68.1774 120.216C68.6907 120.216 69.1387 120.109 69.5214 119.894C69.904 119.67 70.2027 119.371 70.4174 118.998C70.632 118.625 70.7394 118.209 70.7394 117.752V115.848C70.7394 115.4 70.576 115.036 70.2494 114.756C69.9227 114.476 69.498 114.336 68.9754 114.336C68.518 114.336 68.1167 114.453 67.7714 114.686C67.426 114.91 67.1694 115.204 67.0014 115.568L66.0494 115.05C66.1894 114.733 66.4087 114.443 66.7074 114.182C67.0154 113.921 67.3654 113.715 67.7574 113.566C68.1494 113.407 68.5554 113.328 68.9754 113.328C69.526 113.328 70.0114 113.435 70.4314 113.65C70.8607 113.865 71.192 114.163 71.4254 114.546C71.668 114.919 71.7894 115.353 71.7894 115.848V121H70.7394V119.502L70.8934 119.656C70.7627 119.936 70.5574 120.193 70.2774 120.426C70.0067 120.65 69.6847 120.832 69.3114 120.972C68.9474 121.103 68.546 121.168 68.1074 121.168ZM73.9491 121V110.402H74.9991V121H73.9491ZM77.1483 121V110.402H78.1983V121H77.1483ZM80.5015 124.08C80.3522 124.08 80.1982 124.066 80.0395 124.038C79.8902 124.019 79.7409 123.982 79.5915 123.926V122.946C79.6849 122.955 79.8015 122.969 79.9415 122.988C80.0909 123.016 80.2402 123.03 80.3895 123.03C80.8469 123.03 81.1969 122.932 81.4395 122.736C81.6822 122.549 81.9202 122.185 82.1535 121.644L82.6295 120.524L82.6015 121.448L79.4235 113.496H80.5575L83.1615 120.062H82.8675L85.4575 113.496H86.6195L83.1895 121.952C83.0402 122.316 82.8489 122.661 82.6155 122.988C82.3915 123.315 82.1069 123.576 81.7615 123.772C81.4162 123.977 80.9962 124.08 80.5015 124.08ZM94.0263 121.168C93.3823 121.168 92.799 121.023 92.2763 120.734C91.763 120.435 91.3756 120.015 91.1143 119.474L91.2823 119.32V121H90.2323V110.402H91.2823V115.176L91.1143 114.882C91.413 114.406 91.8096 114.028 92.3043 113.748C92.8083 113.468 93.3823 113.328 94.0263 113.328C94.7356 113.328 95.3656 113.501 95.9163 113.846C96.4763 114.182 96.915 114.644 97.2323 115.232C97.559 115.82 97.7223 116.492 97.7223 117.248C97.7223 117.995 97.559 118.667 97.2323 119.264C96.915 119.852 96.4763 120.319 95.9163 120.664C95.3656 121 94.7356 121.168 94.0263 121.168ZM93.9703 120.118C94.4743 120.118 94.9223 119.992 95.3143 119.74C95.7156 119.488 96.0283 119.147 96.2523 118.718C96.4856 118.279 96.6023 117.789 96.6023 117.248C96.6023 116.697 96.4856 116.207 96.2523 115.778C96.0283 115.349 95.7156 115.008 95.3143 114.756C94.9223 114.504 94.4743 114.378 93.9703 114.378C93.4663 114.378 93.009 114.504 92.5983 114.756C92.197 115.008 91.875 115.353 91.6323 115.792C91.399 116.221 91.2823 116.707 91.2823 117.248C91.2823 117.789 91.399 118.279 91.6323 118.718C91.875 119.147 92.197 119.488 92.5983 119.74C93.009 119.992 93.4663 120.118 93.9703 120.118ZM102.23 121.168C101.708 121.168 101.232 121.047 100.802 120.804C100.373 120.552 100.032 120.207 99.7802 119.768C99.5375 119.32 99.4162 118.807 99.4162 118.228V113.496H100.466V118.102C100.466 118.503 100.546 118.858 100.704 119.166C100.872 119.465 101.101 119.698 101.39 119.866C101.689 120.034 102.03 120.118 102.412 120.118C102.795 120.118 103.136 120.034 103.434 119.866C103.733 119.689 103.966 119.441 104.134 119.124C104.302 118.797 104.386 118.41 104.386 117.962V113.496H105.436V121H104.386V119.544L104.624 119.6C104.447 120.085 104.144 120.468 103.714 120.748C103.285 121.028 102.79 121.168 102.23 121.168ZM107.596 121V113.496H108.646V121H107.596ZM107.596 112.11V110.57H108.646V112.11H107.596ZM110.795 121V110.402H111.845V121H110.795ZM117.382 121.168C116.682 121.168 116.052 121 115.492 120.664C114.932 120.319 114.489 119.852 114.162 119.264C113.845 118.667 113.686 117.995 113.686 117.248C113.686 116.492 113.845 115.82 114.162 115.232C114.489 114.644 114.927 114.182 115.478 113.846C116.038 113.501 116.673 113.328 117.382 113.328C118.026 113.328 118.6 113.468 119.104 113.748C119.608 114.028 120.005 114.406 120.294 114.882L120.126 115.176V110.402H121.176V121H120.126V119.32L120.294 119.474C120.033 120.015 119.641 120.435 119.118 120.734C118.605 121.023 118.026 121.168 117.382 121.168ZM117.438 120.118C117.942 120.118 118.395 119.992 118.796 119.74C119.207 119.488 119.529 119.147 119.762 118.718C120.005 118.279 120.126 117.789 120.126 117.248C120.126 116.707 120.005 116.221 119.762 115.792C119.529 115.353 119.207 115.008 118.796 114.756C118.395 114.504 117.942 114.378 117.438 114.378C116.943 114.378 116.495 114.504 116.094 114.756C115.693 115.008 115.375 115.349 115.142 115.778C114.918 116.207 114.806 116.697 114.806 117.248C114.806 117.789 114.918 118.279 115.142 118.718C115.375 119.147 115.688 119.488 116.08 119.74C116.481 119.992 116.934 120.118 117.438 120.118ZM123.332 121V113.496H124.382V121H123.332ZM123.332 112.11V110.57H124.382V112.11H123.332ZM126.531 121V113.496H127.581V114.952L127.343 114.896C127.53 114.411 127.833 114.028 128.253 113.748C128.682 113.468 129.177 113.328 129.737 113.328C130.269 113.328 130.745 113.449 131.165 113.692C131.594 113.935 131.93 114.271 132.173 114.7C132.425 115.12 132.551 115.596 132.551 116.128V121H131.501V116.534C131.501 116.077 131.417 115.689 131.249 115.372C131.09 115.055 130.862 114.812 130.563 114.644C130.274 114.467 129.938 114.378 129.555 114.378C129.172 114.378 128.832 114.467 128.533 114.644C128.234 114.812 128.001 115.059 127.833 115.386C127.665 115.703 127.581 116.086 127.581 116.534V121H126.531ZM138.113 124.08C137.599 124.08 137.123 124.001 136.685 123.842C136.255 123.683 135.882 123.464 135.565 123.184C135.257 122.913 135.019 122.596 134.851 122.232L135.817 121.714C135.966 122.069 136.232 122.377 136.615 122.638C136.997 122.899 137.487 123.03 138.085 123.03C138.542 123.03 138.962 122.941 139.345 122.764C139.727 122.587 140.035 122.325 140.269 121.98C140.502 121.635 140.619 121.21 140.619 120.706V119.04L140.787 119.194C140.525 119.735 140.138 120.155 139.625 120.454C139.111 120.743 138.551 120.888 137.945 120.888C137.245 120.888 136.615 120.72 136.055 120.384C135.495 120.048 135.051 119.595 134.725 119.026C134.407 118.447 134.249 117.808 134.249 117.108C134.249 116.399 134.407 115.759 134.725 115.19C135.051 114.621 135.49 114.168 136.041 113.832C136.601 113.496 137.235 113.328 137.945 113.328C138.551 113.328 139.102 113.468 139.597 113.748C140.101 114.028 140.497 114.406 140.787 114.882L140.619 115.176V113.496H141.669V120.706C141.669 121.35 141.515 121.924 141.207 122.428C140.908 122.941 140.488 123.343 139.947 123.632C139.415 123.931 138.803 124.08 138.113 124.08ZM138.001 119.838C138.486 119.838 138.925 119.717 139.317 119.474C139.709 119.222 140.021 118.891 140.255 118.48C140.497 118.06 140.619 117.603 140.619 117.108C140.619 116.613 140.497 116.161 140.255 115.75C140.021 115.33 139.709 114.999 139.317 114.756C138.925 114.504 138.486 114.378 138.001 114.378C137.506 114.378 137.058 114.504 136.657 114.756C136.255 114.999 135.938 115.325 135.705 115.736C135.481 116.147 135.369 116.604 135.369 117.108C135.369 117.603 135.481 118.06 135.705 118.48C135.938 118.891 136.251 119.222 136.643 119.474C137.044 119.717 137.497 119.838 138.001 119.838ZM149.075 121.084C148.403 121.084 147.885 120.888 147.521 120.496C147.157 120.104 146.975 119.544 146.975 118.816V114.546H145.589V113.496H145.939C146.256 113.496 146.508 113.393 146.695 113.188C146.882 112.973 146.975 112.707 146.975 112.39V111.76H148.025V113.496H149.677V114.546H148.025V118.816C148.025 119.068 148.062 119.292 148.137 119.488C148.212 119.675 148.338 119.824 148.515 119.936C148.702 120.048 148.949 120.104 149.257 120.104C149.332 120.104 149.42 120.099 149.523 120.09C149.626 120.081 149.714 120.071 149.789 120.062V121C149.677 121.028 149.551 121.047 149.411 121.056C149.271 121.075 149.159 121.084 149.075 121.084ZM151.633 121V110.402H152.683V114.952L152.445 114.896C152.631 114.411 152.935 114.028 153.355 113.748C153.784 113.468 154.279 113.328 154.839 113.328C155.371 113.328 155.847 113.449 156.267 113.692C156.696 113.935 157.032 114.271 157.275 114.7C157.527 115.12 157.653 115.596 157.653 116.128V121H156.603V116.534C156.603 116.077 156.519 115.689 156.351 115.372C156.183 115.055 155.949 114.812 155.651 114.644C155.361 114.467 155.03 114.378 154.657 114.378C154.283 114.378 153.947 114.467 153.649 114.644C153.35 114.812 153.112 115.059 152.935 115.386C152.767 115.703 152.683 116.086 152.683 116.534V121H151.633ZM163.074 121.168C162.374 121.168 161.739 121 161.17 120.664C160.61 120.319 160.167 119.847 159.84 119.25C159.513 118.653 159.35 117.976 159.35 117.22C159.35 116.464 159.509 115.797 159.826 115.218C160.143 114.63 160.573 114.168 161.114 113.832C161.665 113.496 162.281 113.328 162.962 113.328C163.503 113.328 163.984 113.431 164.404 113.636C164.833 113.832 165.197 114.103 165.496 114.448C165.795 114.784 166.023 115.167 166.182 115.596C166.341 116.016 166.42 116.45 166.42 116.898C166.42 116.991 166.415 117.099 166.406 117.22C166.397 117.332 166.383 117.449 166.364 117.57H160.022V116.59H165.762L165.258 117.01C165.342 116.497 165.281 116.039 165.076 115.638C164.88 115.227 164.595 114.905 164.222 114.672C163.849 114.429 163.429 114.308 162.962 114.308C162.495 114.308 162.061 114.429 161.66 114.672C161.268 114.915 160.96 115.255 160.736 115.694C160.512 116.123 160.423 116.637 160.47 117.234C160.423 117.831 160.517 118.354 160.75 118.802C160.993 119.241 161.319 119.581 161.73 119.824C162.15 120.067 162.598 120.188 163.074 120.188C163.625 120.188 164.087 120.057 164.46 119.796C164.833 119.535 165.137 119.208 165.37 118.816L166.266 119.292C166.117 119.628 165.888 119.941 165.58 120.23C165.272 120.51 164.903 120.739 164.474 120.916C164.054 121.084 163.587 121.168 163.074 121.168ZM173.254 121.168C172.536 121.168 171.906 120.986 171.364 120.622C170.823 120.258 170.431 119.763 170.188 119.138L171.07 118.718C171.285 119.175 171.584 119.539 171.966 119.81C172.358 120.081 172.788 120.216 173.254 120.216C173.702 120.216 174.08 120.109 174.388 119.894C174.696 119.67 174.85 119.381 174.85 119.026C174.85 118.765 174.776 118.559 174.626 118.41C174.477 118.251 174.304 118.13 174.108 118.046C173.912 117.962 173.74 117.901 173.59 117.864L172.512 117.556C171.822 117.36 171.322 117.085 171.014 116.73C170.706 116.375 170.552 115.965 170.552 115.498C170.552 115.059 170.664 114.677 170.888 114.35C171.112 114.023 171.416 113.771 171.798 113.594C172.181 113.417 172.606 113.328 173.072 113.328C173.707 113.328 174.281 113.496 174.794 113.832C175.317 114.159 175.686 114.616 175.9 115.204L175.004 115.624C174.818 115.204 174.547 114.877 174.192 114.644C173.847 114.401 173.46 114.28 173.03 114.28C172.61 114.28 172.274 114.387 172.022 114.602C171.77 114.817 171.644 115.087 171.644 115.414C171.644 115.666 171.71 115.867 171.84 116.016C171.971 116.165 172.12 116.277 172.288 116.352C172.466 116.427 172.62 116.483 172.75 116.52L173.996 116.884C174.603 117.061 175.074 117.337 175.41 117.71C175.756 118.083 175.928 118.522 175.928 119.026C175.928 119.437 175.812 119.805 175.578 120.132C175.354 120.459 175.042 120.715 174.64 120.902C174.239 121.079 173.777 121.168 173.254 121.168ZM177.773 121V113.496H178.823V121H177.773ZM177.773 112.11V110.57H178.823V112.11H177.773ZM183.843 121.084C183.171 121.084 182.653 120.888 182.289 120.496C181.925 120.104 181.743 119.544 181.743 118.816V114.546H180.357V113.496H180.707C181.024 113.496 181.276 113.393 181.463 113.188C181.649 112.973 181.743 112.707 181.743 112.39V111.76H182.793V113.496H184.445V114.546H182.793V118.816C182.793 119.068 182.83 119.292 182.905 119.488C182.979 119.675 183.105 119.824 183.283 119.936C183.469 120.048 183.717 120.104 184.025 120.104C184.099 120.104 184.188 120.099 184.291 120.09C184.393 120.081 184.482 120.071 184.557 120.062V121C184.445 121.028 184.319 121.047 184.179 121.056C184.039 121.075 183.927 121.084 183.843 121.084ZM189.543 121.168C188.843 121.168 188.208 121 187.639 120.664C187.079 120.319 186.635 119.847 186.309 119.25C185.982 118.653 185.819 117.976 185.819 117.22C185.819 116.464 185.977 115.797 186.295 115.218C186.612 114.63 187.041 114.168 187.583 113.832C188.133 113.496 188.749 113.328 189.431 113.328C189.972 113.328 190.453 113.431 190.873 113.636C191.302 113.832 191.666 114.103 191.965 114.448C192.263 114.784 192.492 115.167 192.651 115.596C192.809 116.016 192.889 116.45 192.889 116.898C192.889 116.991 192.884 117.099 192.875 117.22C192.865 117.332 192.851 117.449 192.833 117.57H186.491V116.59H192.231L191.727 117.01C191.811 116.497 191.75 116.039 191.545 115.638C191.349 115.227 191.064 114.905 190.691 114.672C190.317 114.429 189.897 114.308 189.431 114.308C188.964 114.308 188.53 114.429 188.129 114.672C187.737 114.915 187.429 115.255 187.205 115.694C186.981 116.123 186.892 116.637 186.939 117.234C186.892 117.831 186.985 118.354 187.219 118.802C187.461 119.241 187.788 119.581 188.199 119.824C188.619 120.067 189.067 120.188 189.543 120.188C190.093 120.188 190.555 120.057 190.929 119.796C191.302 119.535 191.605 119.208 191.839 118.816L192.735 119.292C192.585 119.628 192.357 119.941 192.049 120.23C191.741 120.51 191.372 120.739 190.943 120.916C190.523 121.084 190.056 121.168 189.543 121.168ZM195.104 121V119.46H196.224V121H195.104Z" fill="#183153"/>
<path d="M97.748 69.898C96.9267 69.898 96.1613 69.7487 95.452 69.45C94.752 69.1607 94.136 68.75 93.604 68.218C93.072 67.686 92.6567 67.07 92.358 66.37C92.0687 65.6607 91.924 64.9 91.924 64.088C91.924 63.276 92.0733 62.52 92.372 61.82C92.6707 61.12 93.0813 60.5087 93.604 59.986C94.136 59.4633 94.7567 59.0573 95.466 58.768C96.1753 58.4693 96.936 58.32 97.748 58.32C98.588 58.32 99.3627 58.4787 100.072 58.796C100.781 59.104 101.393 59.5287 101.906 60.07C102.429 60.602 102.83 61.2087 103.11 61.89C103.399 62.5713 103.544 63.2853 103.544 64.032C103.544 64.62 103.451 65.138 103.264 65.586C103.087 66.0247 102.825 66.37 102.48 66.622C102.135 66.874 101.719 67 101.234 67C100.945 67 100.669 66.9487 100.408 66.846C100.147 66.734 99.9227 66.58 99.736 66.384C99.5587 66.1787 99.4373 65.936 99.372 65.656L99.596 65.838C99.4467 66.09 99.26 66.3047 99.036 66.482C98.8213 66.65 98.5787 66.7807 98.308 66.874C98.0373 66.958 97.7433 67 97.426 67C96.8847 67 96.3947 66.8693 95.956 66.608C95.5267 66.3467 95.186 65.992 94.934 65.544C94.682 65.096 94.556 64.5873 94.556 64.018C94.556 63.4487 94.682 62.94 94.934 62.492C95.186 62.044 95.5267 61.6893 95.956 61.428C96.3947 61.1573 96.8847 61.022 97.426 61.022C97.8833 61.022 98.2987 61.1153 98.672 61.302C99.0547 61.4887 99.358 61.75 99.582 62.086L99.484 62.254V61.162H100.394V65.026C100.394 65.3713 100.469 65.6233 100.618 65.782C100.777 65.9407 100.987 66.02 101.248 66.02C101.64 66.02 101.943 65.8567 102.158 65.53C102.382 65.2033 102.494 64.7133 102.494 64.06C102.494 63.388 102.377 62.7627 102.144 62.184C101.911 61.6053 101.584 61.1013 101.164 60.672C100.744 60.2427 100.245 59.9067 99.666 59.664C99.0873 59.4213 98.448 59.3 97.748 59.3C97.0667 59.3 96.432 59.4213 95.844 59.664C95.2653 59.8973 94.7613 60.2287 94.332 60.658C93.9027 61.0873 93.5667 61.5913 93.324 62.17C93.0907 62.7487 92.974 63.3833 92.974 64.074C92.974 64.746 93.086 65.376 93.31 65.964C93.5433 66.5427 93.87 67.0513 94.29 67.49C94.7193 67.938 95.228 68.288 95.816 68.54C96.404 68.792 97.0573 68.918 97.776 68.918C98.196 68.918 98.602 68.8713 98.994 68.778C99.386 68.694 99.7407 68.5633 100.058 68.386L100.506 69.226C99.7127 69.674 98.7933 69.898 97.748 69.898ZM97.468 66.02C97.832 66.02 98.154 65.9313 98.434 65.754C98.714 65.5767 98.9333 65.3387 99.092 65.04C99.26 64.732 99.344 64.3867 99.344 64.004C99.344 63.4253 99.1667 62.954 98.812 62.59C98.4573 62.2167 98.0093 62.03 97.468 62.03C97.1133 62.03 96.7913 62.1187 96.502 62.296C96.222 62.464 96.0027 62.6973 95.844 62.996C95.6853 63.2947 95.606 63.6353 95.606 64.018C95.606 64.3913 95.6853 64.732 95.844 65.04C96.012 65.3387 96.236 65.5767 96.516 65.754C96.796 65.9313 97.1133 66.02 97.468 66.02ZM103.68 70.08C103.615 70.08 103.526 70.0753 103.414 70.066C103.293 70.0567 103.195 70.0427 103.12 70.024V69.058C103.316 69.086 103.512 69.1 103.708 69.1C104.091 69.1 104.413 68.9833 104.674 68.75C104.945 68.5167 105.08 68.1667 105.08 67.7V59.496H106.13V67.7C106.13 68.2133 106.018 68.6473 105.794 69.002C105.57 69.3567 105.271 69.6227 104.898 69.8C104.534 69.9867 104.128 70.08 103.68 70.08ZM105.08 58.11V56.57H106.13V58.11H105.08ZM111.793 67.168C111.084 67.168 110.44 67 109.861 66.664C109.283 66.3187 108.821 65.852 108.475 65.264C108.139 64.6667 107.971 63.99 107.971 63.234C107.971 62.4873 108.139 61.82 108.475 61.232C108.811 60.644 109.264 60.182 109.833 59.846C110.412 59.5007 111.065 59.328 111.793 59.328C112.521 59.328 113.17 59.496 113.739 59.832C114.318 60.168 114.771 60.63 115.097 61.218C115.433 61.806 115.601 62.478 115.601 63.234C115.601 63.9993 115.429 64.6807 115.083 65.278C114.738 65.866 114.276 66.328 113.697 66.664C113.128 67 112.493 67.168 111.793 67.168ZM111.793 66.118C112.297 66.118 112.75 65.992 113.151 65.74C113.562 65.488 113.884 65.1427 114.117 64.704C114.36 64.2653 114.481 63.7753 114.481 63.234C114.481 62.6927 114.36 62.2073 114.117 61.778C113.884 61.3487 113.562 61.008 113.151 60.756C112.75 60.504 112.297 60.378 111.793 60.378C111.289 60.378 110.832 60.504 110.421 60.756C110.02 61.008 109.698 61.3487 109.455 61.778C109.213 62.2073 109.091 62.6927 109.091 63.234C109.091 63.7753 109.213 64.2653 109.455 64.704C109.698 65.1427 110.02 65.488 110.421 65.74C110.832 65.992 111.289 66.118 111.793 66.118ZM117.453 67V56.402H118.503V60.952L118.265 60.896C118.452 60.4107 118.755 60.028 119.175 59.748C119.604 59.468 120.099 59.328 120.659 59.328C121.191 59.328 121.667 59.4493 122.087 59.692C122.516 59.9347 122.852 60.2707 123.095 60.7C123.347 61.12 123.473 61.596 123.473 62.128V67H122.423V62.534C122.423 62.0767 122.339 61.6893 122.171 61.372C122.003 61.0547 121.77 60.812 121.471 60.644C121.182 60.4667 120.85 60.378 120.477 60.378C120.104 60.378 119.768 60.4667 119.469 60.644C119.17 60.812 118.932 61.0593 118.755 61.386C118.587 61.7033 118.503 62.086 118.503 62.534V67H117.453ZM125.478 67V59.496H126.528V60.952L126.29 60.896C126.477 60.4107 126.78 60.028 127.2 59.748C127.63 59.468 128.124 59.328 128.684 59.328C129.216 59.328 129.692 59.4493 130.112 59.692C130.542 59.9347 130.878 60.2707 131.12 60.7C131.372 61.12 131.498 61.596 131.498 62.128V67H130.448V62.534C130.448 62.0767 130.364 61.6893 130.196 61.372C130.038 61.0547 129.809 60.812 129.51 60.644C129.221 60.4667 128.885 60.378 128.502 60.378C128.12 60.378 127.779 60.4667 127.48 60.644C127.182 60.812 126.948 61.0593 126.78 61.386C126.612 61.7033 126.528 62.086 126.528 62.534V67H125.478ZM133.462 67.98V67H139.762V67.98H133.462ZM145.259 67.168C144.559 67.168 143.929 67 143.369 66.664C142.809 66.3187 142.366 65.852 142.039 65.264C141.722 64.6667 141.563 63.9947 141.563 63.248C141.563 62.492 141.722 61.82 142.039 61.232C142.366 60.644 142.804 60.182 143.355 59.846C143.915 59.5007 144.55 59.328 145.259 59.328C145.903 59.328 146.477 59.468 146.981 59.748C147.485 60.028 147.882 60.406 148.171 60.882L148.003 61.176V56.402H149.053V67H148.003V65.32L148.171 65.474C147.91 66.0153 147.518 66.4353 146.995 66.734C146.482 67.0233 145.903 67.168 145.259 67.168ZM145.315 66.118C145.819 66.118 146.272 65.992 146.673 65.74C147.084 65.488 147.406 65.1473 147.639 64.718C147.882 64.2793 148.003 63.7893 148.003 63.248C148.003 62.7067 147.882 62.2213 147.639 61.792C147.406 61.3533 147.084 61.008 146.673 60.756C146.272 60.504 145.819 60.378 145.315 60.378C144.82 60.378 144.372 60.504 143.971 60.756C143.57 61.008 143.252 61.3487 143.019 61.778C142.795 62.2073 142.683 62.6973 142.683 63.248C142.683 63.7893 142.795 64.2793 143.019 64.718C143.252 65.1473 143.565 65.488 143.957 65.74C144.358 65.992 144.811 66.118 145.315 66.118ZM154.723 67.168C154.014 67.168 153.37 67 152.791 66.664C152.212 66.3187 151.75 65.852 151.405 65.264C151.069 64.6667 150.901 63.99 150.901 63.234C150.901 62.4873 151.069 61.82 151.405 61.232C151.741 60.644 152.194 60.182 152.763 59.846C153.342 59.5007 153.995 59.328 154.723 59.328C155.451 59.328 156.1 59.496 156.669 59.832C157.248 60.168 157.7 60.63 158.027 61.218C158.363 61.806 158.531 62.478 158.531 63.234C158.531 63.9993 158.358 64.6807 158.013 65.278C157.668 65.866 157.206 66.328 156.627 66.664C156.058 67 155.423 67.168 154.723 67.168ZM154.723 66.118C155.227 66.118 155.68 65.992 156.081 65.74C156.492 65.488 156.814 65.1427 157.047 64.704C157.29 64.2653 157.411 63.7753 157.411 63.234C157.411 62.6927 157.29 62.2073 157.047 61.778C156.814 61.3487 156.492 61.008 156.081 60.756C155.68 60.504 155.227 60.378 154.723 60.378C154.219 60.378 153.762 60.504 153.351 60.756C152.95 61.008 152.628 61.3487 152.385 61.778C152.142 62.2073 152.021 62.6927 152.021 63.234C152.021 63.7753 152.142 64.2653 152.385 64.704C152.628 65.1427 152.95 65.488 153.351 65.74C153.762 65.992 154.219 66.118 154.723 66.118ZM163.799 67.168C163.099 67.168 162.464 67 161.895 66.664C161.335 66.3187 160.891 65.8473 160.565 65.25C160.238 64.6527 160.075 63.976 160.075 63.22C160.075 62.464 160.233 61.7967 160.551 61.218C160.868 60.63 161.297 60.168 161.839 59.832C162.389 59.496 163.005 59.328 163.687 59.328C164.228 59.328 164.709 59.4307 165.129 59.636C165.558 59.832 165.922 60.1027 166.221 60.448C166.519 60.784 166.748 61.1667 166.907 61.596C167.065 62.016 167.145 62.45 167.145 62.898C167.145 62.9913 167.14 63.0987 167.131 63.22C167.121 63.332 167.107 63.4487 167.089 63.57H160.747V62.59H166.487L165.983 63.01C166.067 62.4967 166.006 62.0393 165.801 61.638C165.605 61.2273 165.32 60.9053 164.947 60.672C164.573 60.4293 164.153 60.308 163.687 60.308C163.22 60.308 162.786 60.4293 162.385 60.672C161.993 60.9147 161.685 61.2553 161.461 61.694C161.237 62.1233 161.148 62.6367 161.195 63.234C161.148 63.8313 161.241 64.354 161.475 64.802C161.717 65.2407 162.044 65.5813 162.455 65.824C162.875 66.0667 163.323 66.188 163.799 66.188C164.349 66.188 164.811 66.0573 165.185 65.796C165.558 65.5347 165.861 65.208 166.095 64.816L166.991 65.292C166.841 65.628 166.613 65.9407 166.305 66.23C165.997 66.51 165.628 66.7387 165.199 66.916C164.779 67.084 164.312 67.168 163.799 67.168Z" fill="#183153"/>
<defs>
<filter id="filter0_d_471_184" x="0" y="0" width="264" height="162" filterUnits="userSpaceOnUse" color-interpolation-filters="sRGB">
<feFlood flood-opacity="0" result="BackgroundImageFix"/>
<feColorMatrix in="SourceAlpha" type="matrix" values="0 0 0 0 0 0 0 0 0 0 0 0 0 0 0 0 0 0 127 0" result="hardAlpha"/>
<feMorphology radius="2" operator="dilate" in="SourceAlpha" result="effect1_dropShadow_471_184"/>
<feOffset dx="1" dy="4"/>
<feGaussianBlur stdDeviation="5"/>
<feComposite in2="hardAlpha" operator="out"/>
<feColorMatrix type="matrix" values="0 0 0 0 0 0 0 0 0 0 0 0 0 0 0 0 0 0 0.1 0"/>
<feBlend mode="normal" in2="BackgroundImageFix" result="effect1_dropShadow_471_184"/>
<feBlend mode="normal" in="SourceGraphic" in2="effect1_dropShadow_471_184" result="shape"/>
</filter>
</defs>
</svg>
