<svg width="264" height="162" viewBox="0 0 264 162" fill="none" xmlns="http://www.w3.org/2000/svg">
<g filter="url(#filter0_d_471_184)">
<rect x="11" y="8" width="240" height="138" fill="white"/>
<rect x="12" y="9" width="238" height="136" stroke="#6741D9" stroke-width="2"/>
</g>
<circle cx="55" cy="52" r="20" fill="#D9D9D9"/>
<path d="M98.028 48L97.51 46.796H93.73L93.212 48H91.182L95.312 38.592H95.942L100.058 48H98.028ZM96.852 45.242L95.62 42.12L94.388 45.242H96.852ZM101.194 48V41.07H103.084V48H101.194ZM100.928 38.55C100.928 37.878 101.46 37.374 102.132 37.374C102.804 37.374 103.35 37.878 103.35 38.55C103.35 39.208 102.804 39.712 102.132 39.712C101.46 39.712 100.928 39.208 100.928 38.55ZM115.636 43.702V48H113.746V43.968C113.746 43.142 113.256 42.624 112.514 42.624C111.772 42.624 111.24 43.156 111.24 43.926V48H109.35V43.968C109.35 43.142 108.86 42.624 108.118 42.624C107.348 42.624 106.844 43.142 106.844 43.968V48H104.954V41.07H106.69V41.686C107.152 41.196 107.852 40.916 108.65 40.916C109.56 40.916 110.246 41.252 110.708 41.91C111.254 41.294 112.066 40.916 113.018 40.916C114.642 40.916 115.636 42.022 115.636 43.702ZM117.436 48V41.07H119.326V48H117.436ZM117.17 38.55C117.17 37.878 117.702 37.374 118.374 37.374C119.046 37.374 119.592 37.878 119.592 38.55C119.592 39.208 119.046 39.712 118.374 39.712C117.702 39.712 117.17 39.208 117.17 38.55ZM126.634 48V40.468H123.68V38.76H131.492V40.468H128.524V48H126.634ZM137.97 45.172H133.112C133.336 46.054 134.05 46.544 135.058 46.544C135.744 46.544 136.388 46.306 136.99 45.844L137.774 47.132C136.948 47.818 136.024 48.168 135.002 48.168C132.86 48.21 131.166 46.544 131.208 44.542C131.166 42.54 132.832 40.874 134.834 40.916C136.752 40.916 138.096 42.33 138.096 44.136C138.096 44.472 138.054 44.822 137.97 45.172ZM133.112 43.842H136.262C136.248 42.988 135.59 42.442 134.764 42.442C133.966 42.442 133.322 42.988 133.112 43.842ZM143.827 41.07V42.736H143.323C142.189 42.736 141.461 43.352 141.461 44.542V48H139.571V41.07H141.307V41.896C141.769 41.322 142.441 40.986 143.211 40.986C143.449 40.986 143.645 41.014 143.827 41.07ZM150.672 43.884V48H148.936V47.328C148.432 47.846 147.704 48.168 146.822 48.168C145.352 48.168 144.428 47.314 144.428 46.096C144.428 44.85 145.436 44.08 147.046 44.08H148.782V43.772C148.782 43.002 148.334 42.554 147.494 42.554C146.78 42.554 146.276 42.848 145.66 43.506L144.68 42.344C145.478 41.392 146.486 40.916 147.704 40.916C149.51 40.916 150.672 41.966 150.672 43.884ZM148.782 45.41V45.326H147.298C146.682 45.326 146.332 45.564 146.332 46.026C146.332 46.488 146.724 46.782 147.326 46.782C148.152 46.782 148.782 46.208 148.782 45.41ZM159.323 48H157.167L154.381 44.164V48H152.491V37.5H154.381V44.024L156.873 41.07H159.113L156.509 44.136L159.323 48ZM165.998 43.884V48H164.262V47.328C163.758 47.846 163.03 48.168 162.148 48.168C160.678 48.168 159.754 47.314 159.754 46.096C159.754 44.85 160.762 44.08 162.372 44.08H164.108V43.772C164.108 43.002 163.66 42.554 162.82 42.554C162.106 42.554 161.602 42.848 160.986 43.506L160.006 42.344C160.804 41.392 161.812 40.916 163.03 40.916C164.836 40.916 165.998 41.966 165.998 43.884ZM164.108 45.41V45.326H162.624C162.008 45.326 161.658 45.564 161.658 46.026C161.658 46.488 162.05 46.782 162.652 46.782C163.478 46.782 164.108 46.208 164.108 45.41ZM176.447 41.07H178.435L175.215 48.168H174.599L172.611 44.136L170.609 48.168H169.993L166.773 41.07H168.761L170.399 45.018L172.289 40.916H172.919L174.837 44.934L176.447 41.07ZM185.084 43.884V48H183.348V47.328C182.844 47.846 182.116 48.168 181.234 48.168C179.764 48.168 178.84 47.314 178.84 46.096C178.84 44.85 179.848 44.08 181.458 44.08H183.194V43.772C183.194 43.002 182.746 42.554 181.906 42.554C181.192 42.554 180.688 42.848 180.072 43.506L179.092 42.344C179.89 41.392 180.898 40.916 182.116 40.916C183.922 40.916 185.084 41.966 185.084 43.884ZM183.194 45.41V45.326H181.71C181.094 45.326 180.744 45.564 180.744 46.026C180.744 46.488 181.136 46.782 181.738 46.782C182.564 46.782 183.194 46.208 183.194 45.41Z" fill="#183153"/>
<path d="M36.274 101V91.76H37.366V101H36.274ZM43.4687 100.09V101C43.0347 101.098 42.6567 101.154 42.3347 101.154C40.9207 101.154 40.0387 100.44 40.0387 98.942V95.148H38.8907V94.182H40.0387V92.32H41.1167V94.182H43.2447V95.148H41.1167V98.872C41.1167 99.838 41.6207 100.174 42.5587 100.174C42.8247 100.174 43.1187 100.146 43.4687 100.09ZM45.2027 95.358L45.3987 91.76H46.6587L46.0567 95.358H45.2027ZM48.0831 99.824L48.7691 99.11C49.4271 99.782 49.9591 100.16 50.7291 100.16C51.4711 100.16 52.0311 99.796 52.0311 99.194C52.0311 98.648 51.6811 98.438 50.8411 98.102L50.1831 97.822C49.0491 97.36 48.4891 96.842 48.4891 95.932C48.4891 94.742 49.4831 94.028 50.7851 94.028C51.7371 94.028 52.5071 94.434 53.0671 95.106L52.4091 95.778C51.9471 95.316 51.3591 95.022 50.7291 95.022C50.0571 95.022 49.5951 95.33 49.5951 95.876C49.5951 96.31 49.8751 96.52 50.7011 96.87L51.3311 97.136C52.6051 97.682 53.1371 98.214 53.1371 99.152C53.1371 99.782 52.8991 100.286 52.4371 100.636C51.9751 100.986 51.4151 101.154 50.7431 101.154C49.6091 101.154 48.6851 100.608 48.0831 99.824ZM59.0084 101V90.5H60.0864V101H59.0084ZM62.4537 101V94.182H63.5317V101H62.4537ZM62.1877 91.578C62.1877 91.144 62.5517 90.794 62.9997 90.794C63.4337 90.794 63.7977 91.144 63.7977 91.578C63.7977 92.026 63.4477 92.362 62.9997 92.362C62.5517 92.362 62.1877 92.026 62.1877 91.578ZM65.899 101V90.5H66.977V101H65.899ZM68.391 97.178L71.611 101H70.225L67.089 97.164L69.931 94.182H71.345L68.391 97.178ZM78.7276 97.92H73.3376C73.4636 99.264 74.4996 100.16 75.8436 100.16C76.6136 100.16 77.3136 99.852 77.9296 99.236L78.5596 99.964C77.8456 100.706 76.9076 101.154 75.8296 101.154C73.7996 101.154 72.2176 99.6 72.2176 97.598C72.2176 95.624 73.7576 94.028 75.7036 94.028C77.4676 94.028 78.8116 95.302 78.8116 97.108C78.8116 97.374 78.7836 97.64 78.7276 97.92ZM73.3796 96.968H77.7056C77.6916 95.75 76.8096 95.008 75.6756 95.008C74.5416 95.008 73.6176 95.792 73.3796 96.968ZM95.6755 96.996C95.6755 99.194 94.1915 100.496 92.0915 100.496H91.7555V99.586C91.3215 100.258 90.5235 100.65 89.6275 100.65C88.0315 100.65 86.8415 99.348 86.8415 97.668C86.8415 96.002 88.0175 94.7 89.6415 94.7C90.4815 94.7 91.2375 95.05 91.6715 95.624V94.812H92.6795V99.544C93.9115 99.446 94.6955 98.55 94.6955 96.996C94.7375 94.602 92.7635 92.684 90.0895 92.726C87.2755 92.698 85.0775 94.798 85.1195 97.542C85.0775 100.3 87.3175 102.414 90.0055 102.372C90.6495 102.372 91.2515 102.274 91.8255 102.064L92.0215 102.904C91.3775 103.156 90.6775 103.282 89.9075 103.282C86.7435 103.352 84.0555 100.734 84.1115 97.556C84.0415 94.322 86.8135 91.746 90.0615 91.802C93.1975 91.746 95.7315 94.196 95.6755 96.996ZM91.6155 97.654C91.6155 96.366 90.8035 95.666 89.8095 95.666C88.7455 95.666 87.9475 96.492 87.9475 97.668C87.9475 98.242 88.1295 98.718 88.4795 99.096C88.8295 99.474 89.2775 99.656 89.8095 99.656C90.7755 99.656 91.6155 98.956 91.6155 97.654ZM97.6197 101V91.76H103.402V92.74H98.7117V95.918H102.604V96.912H98.7117V101H97.6197ZM104.878 101V94.182H105.956V101H104.878ZM104.611 91.578C104.611 91.144 104.976 90.794 105.424 90.794C105.858 90.794 106.222 91.144 106.222 91.578C106.222 92.026 105.872 92.362 105.424 92.362C104.976 92.362 104.611 92.026 104.611 91.578ZM113.853 94.182H114.875V100.342C114.875 102.414 113.573 103.674 111.557 103.674C110.227 103.674 109.121 103.128 108.351 102.358L108.981 101.602C109.751 102.274 110.507 102.68 111.529 102.68C112.943 102.68 113.797 101.868 113.797 100.398V99.796C113.251 100.51 112.285 100.93 111.263 100.93C109.345 100.93 107.917 99.46 107.917 97.486C107.917 95.526 109.345 94.028 111.263 94.028C112.341 94.028 113.335 94.49 113.853 95.274V94.182ZM113.811 97.486C113.811 95.848 112.663 95.05 111.431 95.05C110.045 95.05 109.009 96.072 109.009 97.5C109.009 98.942 110.045 99.936 111.431 99.936C112.677 99.936 113.811 99.138 113.811 97.486ZM127.191 96.716V101H126.113V96.856C126.113 95.75 125.511 95.022 124.503 95.022C123.481 95.022 122.753 95.792 122.753 96.758V101H121.675V96.856C121.675 95.75 121.045 95.022 120.051 95.022C119.029 95.022 118.315 95.778 118.315 96.856V101H117.237V94.182H118.245V94.896C118.735 94.336 119.435 94.028 120.275 94.028C121.269 94.028 121.983 94.462 122.375 95.204C122.879 94.49 123.705 94.028 124.713 94.028C126.281 94.028 127.191 95.092 127.191 96.716ZM134.583 96.8V101H133.575V100.118C133.071 100.79 132.273 101.154 131.279 101.154C129.879 101.154 128.899 100.412 128.899 99.236C128.899 98.074 129.879 97.332 131.349 97.332H133.505V96.744C133.505 95.624 132.875 95.022 131.853 95.022C131.027 95.022 130.425 95.386 129.865 96.114L129.151 95.526C129.767 94.518 130.789 94.028 131.923 94.028C133.533 94.028 134.583 95.008 134.583 96.8ZM133.505 98.382V98.214H131.475C130.523 98.214 130.005 98.55 130.005 99.18C130.005 99.866 130.621 100.258 131.419 100.258C132.539 100.258 133.505 99.432 133.505 98.382ZM147.752 97.598C147.752 99.6 146.31 101.154 144.392 101.154C143.328 101.154 142.32 100.692 141.802 99.922V101H140.794V90.5H141.872V95.176C142.418 94.462 143.356 94.028 144.378 94.028C146.296 94.028 147.752 95.596 147.752 97.598ZM146.646 97.584C146.646 96.114 145.61 95.022 144.224 95.022C142.964 95.022 141.858 95.862 141.858 97.598C141.858 99.32 143.006 100.16 144.224 100.16C145.61 100.16 146.646 99.054 146.646 97.584ZM149.555 98.284V94.182H150.619V98.354C150.619 99.46 151.375 100.16 152.383 100.16C153.377 100.16 154.119 99.432 154.119 98.354V94.182H155.197V98.284C155.197 100.006 153.965 101.154 152.383 101.154C150.787 101.154 149.555 100.006 149.555 98.284ZM161.197 100.09V101C160.763 101.098 160.385 101.154 160.063 101.154C158.649 101.154 157.767 100.44 157.767 98.942V95.148H156.619V94.182H157.767V92.32H158.845V94.182H160.973V95.148H158.845V98.872C158.845 99.838 159.349 100.174 160.287 100.174C160.553 100.174 160.847 100.146 161.197 100.09ZM171.573 94.182H172.721L169.361 101.952C168.843 103.142 168.101 103.674 167.051 103.674C166.701 103.674 166.351 103.632 166.001 103.534V102.624C166.351 102.666 166.631 102.694 166.827 102.694C167.541 102.694 168.017 102.428 168.367 101.602L168.731 100.79L165.903 94.182H167.065L169.319 99.614L171.573 94.182ZM173.513 97.584C173.471 95.638 175.137 93.986 177.083 94.028C179.029 94 180.695 95.638 180.653 97.584C180.695 99.502 179.015 101.182 177.069 101.14C175.123 101.182 173.485 99.502 173.513 97.584ZM179.547 97.598C179.547 96.128 178.469 95.022 177.083 95.022C175.683 95.022 174.619 96.128 174.619 97.598C174.619 99.026 175.683 100.146 177.069 100.146C178.455 100.146 179.547 99.026 179.547 97.598ZM182.463 98.284V94.182H183.527V98.354C183.527 99.46 184.283 100.16 185.291 100.16C186.285 100.16 187.027 99.432 187.027 98.354V94.182H188.105V98.284C188.105 100.006 186.873 101.154 185.291 101.154C183.695 101.154 182.463 100.006 182.463 98.284ZM190.507 95.358L190.703 91.76H191.963L191.361 95.358H190.507ZM197.931 94.182V95.134H197.525C196.377 95.134 195.383 95.876 195.383 97.136V101H194.305V94.182H195.313V95.148C195.803 94.49 196.601 94.126 197.427 94.126C197.581 94.126 197.749 94.14 197.931 94.182ZM205.261 97.92H199.871C199.997 99.264 201.033 100.16 202.377 100.16C203.147 100.16 203.847 99.852 204.463 99.236L205.093 99.964C204.379 100.706 203.441 101.154 202.363 101.154C200.333 101.154 198.751 99.6 198.751 97.598C198.751 95.624 200.291 94.028 202.237 94.028C204.001 94.028 205.345 95.302 205.345 97.108C205.345 97.374 205.317 97.64 205.261 97.92ZM199.913 96.968H204.239C204.225 95.75 203.343 95.008 202.209 95.008C201.075 95.008 200.151 95.792 199.913 96.968ZM41.3 114.8V119H40.292V118.118C39.788 118.79 38.99 119.154 37.996 119.154C36.596 119.154 35.616 118.412 35.616 117.236C35.616 116.074 36.596 115.332 38.066 115.332H40.222V114.744C40.222 113.624 39.592 113.022 38.57 113.022C37.744 113.022 37.142 113.386 36.582 114.114L35.868 113.526C36.484 112.518 37.506 112.028 38.64 112.028C40.25 112.028 41.3 113.008 41.3 114.8ZM40.222 116.382V116.214H38.192C37.24 116.214 36.722 116.55 36.722 117.18C36.722 117.866 37.338 118.258 38.136 118.258C39.256 118.258 40.222 117.432 40.222 116.382ZM43.0965 115.584C43.0545 113.638 44.7205 112 46.6665 112.028C47.8565 112.028 48.8645 112.602 49.4805 113.512L48.7105 114.128C48.1645 113.386 47.4785 113.022 46.6805 113.022C45.2665 113.022 44.2025 114.17 44.2025 115.584C44.2025 117.012 45.2665 118.16 46.6805 118.16C47.4785 118.16 48.1505 117.796 48.6965 117.068L49.4665 117.67C48.8505 118.58 47.8565 119.154 46.6665 119.154C44.6925 119.154 43.0965 117.558 43.0965 115.584ZM55.0214 118.09V119C54.5874 119.098 54.2094 119.154 53.8874 119.154C52.4734 119.154 51.5914 118.44 51.5914 116.942V113.148H50.4434V112.182H51.5914V110.32H52.6694V112.182H54.7974V113.148H52.6694V116.872C52.6694 117.838 53.1734 118.174 54.1114 118.174C54.3774 118.174 54.6714 118.146 55.0214 118.09ZM56.5455 116.284V112.182H57.6095V116.354C57.6095 117.46 58.3655 118.16 59.3735 118.16C60.3675 118.16 61.1095 117.432 61.1095 116.354V112.182H62.1875V116.284C62.1875 118.006 60.9555 119.154 59.3735 119.154C57.7775 119.154 56.5455 118.006 56.5455 116.284ZM69.5734 114.8V119H68.5654V118.118C68.0614 118.79 67.2634 119.154 66.2694 119.154C64.8694 119.154 63.8894 118.412 63.8894 117.236C63.8894 116.074 64.8694 115.332 66.3394 115.332H68.4954V114.744C68.4954 113.624 67.8654 113.022 66.8434 113.022C66.0174 113.022 65.4154 113.386 64.8554 114.114L64.1414 113.526C64.7574 112.518 65.7794 112.028 66.9134 112.028C68.5234 112.028 69.5734 113.008 69.5734 114.8ZM68.4954 116.382V116.214H66.4654C65.5134 116.214 64.9954 116.55 64.9954 117.18C64.9954 117.866 65.6114 118.258 66.4094 118.258C67.5294 118.258 68.4954 117.432 68.4954 116.382ZM71.8599 119V108.5H72.9379V119H71.8599ZM75.3052 119V108.5H76.3832V119H75.3052ZM83.5945 112.182H84.7425L81.3825 119.952C80.8645 121.142 80.1225 121.674 79.0725 121.674C78.7225 121.674 78.3725 121.632 78.0225 121.534V120.624C78.3725 120.666 78.6525 120.694 78.8485 120.694C79.5625 120.694 80.0385 120.428 80.3885 119.602L80.7525 118.79L77.9245 112.182H79.0865L81.3405 117.614L83.5945 112.182ZM97.1793 115.598C97.1793 117.6 95.7373 119.154 93.8193 119.154C92.7553 119.154 91.7473 118.692 91.2293 117.922V119H90.2213V108.5H91.2993V113.176C91.8453 112.462 92.7833 112.028 93.8053 112.028C95.7233 112.028 97.1793 113.596 97.1793 115.598ZM96.0733 115.584C96.0733 114.114 95.0373 113.022 93.6513 113.022C92.3913 113.022 91.2853 113.862 91.2853 115.598C91.2853 117.32 92.4333 118.16 93.6513 118.16C95.0373 118.16 96.0733 117.054 96.0733 115.584ZM98.983 116.284V112.182H100.047V116.354C100.047 117.46 100.803 118.16 101.811 118.16C102.805 118.16 103.547 117.432 103.547 116.354V112.182H104.625V116.284C104.625 118.006 103.393 119.154 101.811 119.154C100.215 119.154 98.983 118.006 98.983 116.284ZM106.901 119V112.182H107.979V119H106.901ZM106.635 109.578C106.635 109.144 106.999 108.794 107.447 108.794C107.881 108.794 108.245 109.144 108.245 109.578C108.245 110.026 107.895 110.362 107.447 110.362C106.999 110.362 106.635 110.026 106.635 109.578ZM110.346 119V108.5H111.424V119H110.346ZM119.196 108.5H120.274V119H119.252V117.922C118.734 118.692 117.74 119.154 116.676 119.154C114.758 119.154 113.302 117.6 113.302 115.598C113.302 113.596 114.758 112.028 116.676 112.028C117.698 112.028 118.65 112.462 119.196 113.19V108.5ZM119.21 115.598C119.21 113.862 118.062 113.022 116.83 113.022C115.444 113.022 114.408 114.114 114.408 115.584C114.408 117.054 115.444 118.16 116.83 118.16C118.062 118.16 119.21 117.32 119.21 115.598ZM122.637 119V112.182H123.715V119H122.637ZM122.371 109.578C122.371 109.144 122.735 108.794 123.183 108.794C123.617 108.794 123.981 109.144 123.981 109.578C123.981 110.026 123.631 110.362 123.183 110.362C122.735 110.362 122.371 110.026 122.371 109.578ZM131.725 114.716V119H130.647V114.842C130.647 113.764 130.003 113.022 128.953 113.022C127.903 113.022 127.161 113.778 127.161 114.842V119H126.083V112.182H127.091V112.91C127.595 112.35 128.337 112.028 129.191 112.028C130.773 112.028 131.725 113.106 131.725 114.716ZM139.542 112.182H140.564V118.342C140.564 120.414 139.262 121.674 137.246 121.674C135.916 121.674 134.81 121.128 134.04 120.358L134.67 119.602C135.44 120.274 136.196 120.68 137.218 120.68C138.632 120.68 139.486 119.868 139.486 118.398V117.796C138.94 118.51 137.974 118.93 136.952 118.93C135.034 118.93 133.606 117.46 133.606 115.486C133.606 113.526 135.034 112.028 136.952 112.028C138.03 112.028 139.024 112.49 139.542 113.274V112.182ZM139.5 115.486C139.5 113.848 138.352 113.05 137.12 113.05C135.734 113.05 134.698 114.072 134.698 115.5C134.698 116.942 135.734 117.936 137.12 117.936C138.366 117.936 139.5 117.138 139.5 115.486ZM150.574 118.09V119C150.14 119.098 149.762 119.154 149.44 119.154C148.026 119.154 147.144 118.44 147.144 116.942V113.148H145.996V112.182H147.144V110.32H148.222V112.182H150.35V113.148H148.222V116.872C148.222 117.838 148.726 118.174 149.664 118.174C149.93 118.174 150.224 118.146 150.574 118.09ZM157.824 114.716V119H156.746V114.856C156.746 113.75 156.102 113.022 155.052 113.022C154.002 113.022 153.26 113.792 153.26 114.856V119H152.182V108.5H153.26V112.952C153.722 112.378 154.45 112.028 155.304 112.028C156.872 112.028 157.824 113.106 157.824 114.716ZM166.132 115.92H160.742C160.868 117.264 161.904 118.16 163.248 118.16C164.018 118.16 164.718 117.852 165.334 117.236L165.964 117.964C165.25 118.706 164.312 119.154 163.234 119.154C161.204 119.154 159.622 117.6 159.622 115.598C159.622 113.624 161.162 112.028 163.108 112.028C164.872 112.028 166.216 113.302 166.216 115.108C166.216 115.374 166.188 115.64 166.132 115.92ZM160.784 114.968H165.11C165.096 113.75 164.214 113.008 163.08 113.008C161.946 113.008 161.022 113.792 160.784 114.968ZM171.39 117.824L172.076 117.11C172.734 117.782 173.266 118.16 174.036 118.16C174.778 118.16 175.338 117.796 175.338 117.194C175.338 116.648 174.988 116.438 174.148 116.102L173.49 115.822C172.356 115.36 171.796 114.842 171.796 113.932C171.796 112.742 172.79 112.028 174.092 112.028C175.044 112.028 175.814 112.434 176.374 113.106L175.716 113.778C175.254 113.316 174.666 113.022 174.036 113.022C173.364 113.022 172.902 113.33 172.902 113.876C172.902 114.31 173.182 114.52 174.008 114.87L174.638 115.136C175.912 115.682 176.444 116.214 176.444 117.152C176.444 117.782 176.206 118.286 175.744 118.636C175.282 118.986 174.722 119.154 174.05 119.154C172.916 119.154 171.992 118.608 171.39 117.824ZM178.391 119V112.182H179.469V119H178.391ZM178.125 109.578C178.125 109.144 178.489 108.794 178.937 108.794C179.371 108.794 179.735 109.144 179.735 109.578C179.735 110.026 179.385 110.362 178.937 110.362C178.489 110.362 178.125 110.026 178.125 109.578ZM185.56 118.09V119C185.126 119.098 184.748 119.154 184.426 119.154C183.012 119.154 182.13 118.44 182.13 116.942V113.148H180.982V112.182H182.13V110.32H183.208V112.182H185.336V113.148H183.208V116.872C183.208 117.838 183.712 118.174 184.65 118.174C184.916 118.174 185.21 118.146 185.56 118.09ZM193.052 115.92H187.662C187.788 117.264 188.824 118.16 190.168 118.16C190.938 118.16 191.638 117.852 192.254 117.236L192.884 117.964C192.17 118.706 191.232 119.154 190.154 119.154C188.124 119.154 186.542 117.6 186.542 115.598C186.542 113.624 188.082 112.028 190.028 112.028C191.792 112.028 193.136 113.302 193.136 115.108C193.136 115.374 193.108 115.64 193.052 115.92ZM187.704 114.968H192.03C192.016 113.75 191.134 113.008 190 113.008C188.866 113.008 187.942 113.792 187.704 114.968ZM194.918 118.272C194.918 117.768 195.31 117.39 195.8 117.39C196.29 117.39 196.682 117.768 196.682 118.272C196.682 118.776 196.29 119.154 195.8 119.154C195.31 119.154 194.918 118.776 194.918 118.272Z" fill="#183153"/>
<path d="M103.516 61.024C103.516 62.158 103.166 63.026 102.466 63.628C101.78 64.23 100.856 64.538 99.722 64.538H99.204V63.74C98.798 64.356 98.056 64.692 97.216 64.692C95.62 64.692 94.416 63.404 94.416 61.682C94.416 59.96 95.606 58.672 97.23 58.672C98.028 58.672 98.742 58.98 99.148 59.526V58.798H100.436V63.334C101.57 63.236 102.27 62.466 102.27 61.024C102.27 58.672 100.45 56.922 97.762 56.922C94.976 56.88 92.82 58.91 92.862 61.584C92.82 64.286 94.962 66.302 97.636 66.26C98.21 66.26 98.784 66.176 99.386 65.994L99.624 67.058C98.98 67.31 98.266 67.436 97.496 67.436C94.304 67.492 91.546 64.86 91.602 61.612C91.546 58.266 94.374 55.69 97.734 55.746C100.968 55.69 103.572 58.168 103.516 61.024ZM99.064 61.668C99.064 60.534 98.378 59.932 97.496 59.932C96.558 59.932 95.844 60.632 95.844 61.682C95.844 62.704 96.544 63.418 97.482 63.418C98.336 63.418 99.064 62.802 99.064 61.668ZM110.635 60.842V65H109.263V64.23C108.759 64.832 108.003 65.154 107.065 65.154C105.623 65.154 104.671 64.356 104.671 63.166C104.671 61.976 105.651 61.206 107.205 61.206H109.151V60.758C109.151 59.806 108.619 59.288 107.681 59.288C106.911 59.288 106.351 59.624 105.777 60.31L104.923 59.442C105.609 58.448 106.631 57.972 107.821 57.972C109.515 57.972 110.635 58.994 110.635 60.842ZM109.151 62.396V62.27H107.387C106.603 62.27 106.169 62.55 106.169 63.11C106.169 63.684 106.659 64.02 107.373 64.02C108.367 64.02 109.151 63.334 109.151 62.396ZM112.681 65V58.126H114.151V65H112.681ZM112.415 55.564C112.415 55.018 112.863 54.584 113.423 54.584C113.969 54.584 114.417 55.018 114.417 55.564C114.417 56.11 113.969 56.53 113.423 56.53C112.863 56.53 112.415 56.11 112.415 55.564ZM126.595 60.702V65H125.111V60.912C125.111 59.946 124.565 59.316 123.683 59.316C122.787 59.316 122.171 59.96 122.171 60.842V65H120.701V60.912C120.701 59.96 120.141 59.316 119.259 59.316C118.363 59.316 117.747 59.96 117.747 60.912V65H116.277V58.126H117.649V58.77C118.139 58.266 118.811 57.972 119.637 57.972C120.589 57.972 121.317 58.378 121.723 59.05C122.227 58.392 123.081 57.972 124.047 57.972C125.629 57.972 126.595 59.064 126.595 60.702ZM128.636 65V58.126H130.106V65H128.636ZM128.37 55.564C128.37 55.018 128.818 54.584 129.378 54.584C129.924 54.584 130.372 55.018 130.372 55.564C130.372 56.11 129.924 56.53 129.378 56.53C128.818 56.53 128.37 56.11 128.37 55.564ZM138.238 60.702V65H136.768V60.898C136.768 59.946 136.166 59.302 135.27 59.302C134.36 59.302 133.702 59.96 133.702 60.898V65H132.232V58.126H133.604V58.798C134.122 58.252 134.808 57.972 135.662 57.972C137.272 57.972 138.238 59.064 138.238 60.702ZM139.767 67.17V65.98H145.731V67.17H139.767ZM146.769 61.556C146.727 59.582 148.421 57.944 150.395 57.972C152.397 57.93 154.091 59.61 154.049 61.556C154.091 63.502 152.397 65.196 150.395 65.154C148.421 65.196 146.727 63.502 146.769 61.556ZM152.537 61.57C152.537 60.296 151.599 59.316 150.409 59.316C149.191 59.316 148.267 60.296 148.267 61.57C148.267 62.844 149.191 63.796 150.395 63.796C151.613 63.796 152.537 62.816 152.537 61.57ZM157.456 56.866V58.126H159.08V59.4H157.456V65H155.986V59.4H155.006V58.126H155.986V56.74C155.986 55.13 156.924 54.346 158.436 54.346C158.814 54.346 159.122 54.388 159.388 54.472V55.718C159.164 55.69 158.968 55.676 158.8 55.676C157.904 55.676 157.456 55.984 157.456 56.866ZM161.544 56.866V58.126H163.168V59.4H161.544V65H160.074V59.4H159.094V58.126H160.074V56.74C160.074 55.13 161.012 54.346 162.524 54.346C162.902 54.346 163.21 54.388 163.476 54.472V55.718C163.252 55.69 163.056 55.676 162.888 55.676C161.992 55.676 161.544 55.984 161.544 56.866ZM164.54 65V58.126H166.01V65H164.54ZM164.274 55.564C164.274 55.018 164.722 54.584 165.282 54.584C165.828 54.584 166.276 55.018 166.276 55.564C166.276 56.11 165.828 56.53 165.282 56.53C164.722 56.53 164.274 56.11 164.274 55.564ZM167.714 61.556C167.672 59.582 169.38 57.944 171.354 57.972C172.628 57.972 173.65 58.574 174.252 59.568L173.216 60.38C172.726 59.68 172.11 59.33 171.368 59.33C170.136 59.33 169.212 60.31 169.212 61.556C169.212 62.816 170.136 63.796 171.368 63.796C172.096 63.796 172.712 63.446 173.216 62.76L174.252 63.558C173.636 64.552 172.6 65.154 171.354 65.154C169.324 65.154 167.714 63.558 167.714 61.556ZM175.873 65V58.126H177.343V65H175.873ZM175.607 55.564C175.607 55.018 176.055 54.584 176.615 54.584C177.161 54.584 177.609 55.018 177.609 55.564C177.609 56.11 177.161 56.53 176.615 56.53C176.055 56.53 175.607 56.11 175.607 55.564ZM184.928 60.842V65H183.556V64.23C183.052 64.832 182.296 65.154 181.358 65.154C179.916 65.154 178.964 64.356 178.964 63.166C178.964 61.976 179.944 61.206 181.498 61.206H183.444V60.758C183.444 59.806 182.912 59.288 181.974 59.288C181.204 59.288 180.644 59.624 180.07 60.31L179.216 59.442C179.902 58.448 180.924 57.972 182.114 57.972C183.808 57.972 184.928 58.994 184.928 60.842ZM183.444 62.396V62.27H181.68C180.896 62.27 180.462 62.55 180.462 63.11C180.462 63.684 180.952 64.02 181.666 64.02C182.66 64.02 183.444 63.334 183.444 62.396ZM186.974 65V54.5H188.444V65H186.974Z" fill="#183153"/>
<defs>
<filter id="filter0_d_471_184" x="0" y="0" width="264" height="162" filterUnits="userSpaceOnUse" color-interpolation-filters="sRGB">
<feFlood flood-opacity="0" result="BackgroundImageFix"/>
<feColorMatrix in="SourceAlpha" type="matrix" values="0 0 0 0 0 0 0 0 0 0 0 0 0 0 0 0 0 0 127 0" result="hardAlpha"/>
<feMorphology radius="2" operator="dilate" in="SourceAlpha" result="effect1_dropShadow_471_184"/>
<feOffset dx="1" dy="4"/>
<feGaussianBlur stdDeviation="5"/>
<feComposite in2="hardAlpha" operator="out"/>
<feColorMatrix type="matrix" values="0 0 0 0 0 0 0 0 0 0 0 0 0 0 0 0 0 0 0.1 0"/>
<feBlend mode="normal" in2="BackgroundImageFix" result="effect1_dropShadow_471_184"/>
<feBlend mode="normal" in="SourceGraphic" in2="effect1_dropShadow_471_184" result="shape"/>
</filter>
</defs>
</svg>
