<svg width="64" height="64" viewBox="0 0 64 64" fill="none" xmlns="http://www.w3.org/2000/svg">
<g clip-path="url(#clip0_151_163)">
<path d="M58 32C58 25.1044 55.2607 18.4912 50.3848 13.6152C45.5088 8.73928 38.8956 6 32 6C25.1044 6 18.4912 8.73928 13.6152 13.6152C8.73928 18.4912 6 25.1044 6 32C6 38.8956 8.73928 45.5088 13.6152 50.3848C18.4912 55.2607 25.1044 58 32 58C38.8956 58 45.5088 55.2607 50.3848 50.3848C55.2607 45.5088 58 38.8956 58 32ZM0 32C0 23.5131 3.37142 15.3737 9.37258 9.37258C15.3737 3.37142 23.5131 0 32 0C40.4869 0 48.6263 3.37142 54.6274 9.37258C60.6286 15.3737 64 23.5131 64 32C64 40.4869 60.6286 48.6263 54.6274 54.6274C48.6263 60.6286 40.4869 64 32 64C23.5131 64 15.3737 60.6286 9.37258 54.6274C3.37142 48.6263 0 40.4869 0 32ZM22.2 39.7625C24.1 41.8125 27.35 44 32 44C36.65 44 39.9 41.8125 41.8 39.7625C42.925 38.55 44.825 38.4625 46.0375 39.5875C47.25 40.7125 47.3375 42.6125 46.2125 43.825C43.4625 46.8 38.7125 50 32.0125 50C25.3125 50 20.55 46.8125 17.8125 43.825C16.6875 42.6125 16.7625 40.7125 17.9875 39.5875C19.2125 38.4625 21.1 38.5375 22.225 39.7625H22.2ZM18.05 26C18.05 24.9391 18.4714 23.9217 19.2216 23.1716C19.9717 22.4214 20.9891 22 22.05 22C23.1109 22 24.1283 22.4214 24.8784 23.1716C25.6286 23.9217 26.05 24.9391 26.05 26C26.05 27.0609 25.6286 28.0783 24.8784 28.8284C24.1283 29.5786 23.1109 30 22.05 30C20.9891 30 19.9717 29.5786 19.2216 28.8284C18.4714 28.0783 18.05 27.0609 18.05 26ZM42.05 22C43.1109 22 44.1283 22.4214 44.8784 23.1716C45.6286 23.9217 46.05 24.9391 46.05 26C46.05 27.0609 45.6286 28.0783 44.8784 28.8284C44.1283 29.5786 43.1109 30 42.05 30C40.9891 30 39.9717 29.5786 39.2216 28.8284C38.4714 28.0783 38.05 27.0609 38.05 26C38.05 24.9391 38.4714 23.9217 39.2216 23.1716C39.9717 22.4214 40.9891 22 42.05 22Z" fill="#4BA3E3"/>
</g>
<defs>
<clipPath id="clip0_151_163">
<rect width="64" height="64" fill="white"/>
</clipPath>
</defs>
</svg>
