<svg width="64" height="64" viewBox="0 0 64 64" fill="none" xmlns="http://www.w3.org/2000/svg">
<path d="M34 12C24.175 12 15.8625 18.4375 13.0375 27.3125C17.2375 25.1875 21.975 24 27 24H38C39.1 24 40 24.9 40 26C40 27.1 39.1 28 38 28H36H27C24.925 28 22.9125 28.2375 20.975 28.675C17.7375 29.4125 14.725 30.725 12.05 32.5125C4.7875 37.35 0 45.6125 0 55V57C0 58.6625 1.3375 60 3 60C4.6625 60 6 58.6625 6 57V55C6 48.9125 8.5875 43.4375 12.725 39.6C15.2 49.0375 23.7875 56 34 56H34.125C50.6375 55.9125 64 39.6375 64 19.575C64 14.25 63.0625 9.18751 61.3625 4.62501C61.0375 3.76251 59.775 3.80001 59.3375 4.61251C56.9875 9.01251 52.3375 12 47 12H34Z" fill="#4BA3E3"/>
</svg>
