<svg width="64" height="64" viewBox="0 0 64 64" fill="none" xmlns="http://www.w3.org/2000/svg">
<path d="M24.44 6.92444C24.7227 5.23822 26.1994 4 27.9274 4H36.0742C37.8022 4 39.2788 5.23822 39.5616 6.92444L40.2308 10.9098C40.4287 12.0733 41.2142 13.044 42.2573 13.6164C42.4898 13.7409 42.7191 13.8747 42.9485 14.0116C43.9664 14.6213 45.2106 14.8111 46.3259 14.3973L50.1495 12.9787C50.9331 12.6869 51.7958 12.6799 52.5841 12.9591C53.3723 13.2383 54.0349 13.7854 54.4538 14.5031L58.5257 21.4938C58.9437 22.2115 59.091 23.0529 58.9415 23.8681C58.7919 24.6833 58.3551 25.4195 57.7088 25.9458L54.5575 28.5187C53.637 29.2653 53.1814 30.4258 53.2034 31.6049C53.2084 31.8693 53.2084 32.1338 53.2034 32.3982C53.1814 33.5742 53.637 34.7316 54.5544 35.4782L57.7119 38.0542C59.0441 39.1431 59.3897 41.0222 58.5288 42.5031L54.4507 49.4938C54.0324 50.2113 53.3705 50.7586 52.5829 51.0383C51.7953 51.3181 50.9331 51.312 50.1495 51.0213L46.3259 49.6027C45.2106 49.1889 43.9696 49.3787 42.9453 49.9884C42.7175 50.1256 42.4871 50.2584 42.2541 50.3867C41.2142 50.956 40.4287 51.9267 40.2308 53.0902L39.5616 57.0724C39.2788 58.7618 37.8022 60 36.0742 60H27.9242C26.1962 60 24.7196 58.7618 24.4368 57.0756L23.7676 53.0902C23.5728 51.9267 22.7874 50.956 21.7443 50.3836C21.5113 50.2563 21.2809 50.1246 21.0531 49.9884C20.032 49.3787 18.791 49.1889 17.6725 49.6027L13.8489 51.0213C13.0657 51.3123 12.2037 51.3188 11.4161 51.0397C10.6286 50.7605 9.96653 50.2139 9.54769 49.4969L5.47274 42.5062C5.0547 41.7885 4.90736 40.9471 5.05694 40.1319C5.20652 39.3167 5.64332 38.5805 6.28962 38.0542L9.44401 35.4813C10.3614 34.7347 10.817 33.5742 10.795 32.3951C10.7901 32.1307 10.7901 31.8662 10.795 31.6018C10.817 30.4258 10.3614 29.2684 9.44401 28.5218L6.28962 25.9458C5.6441 25.4197 5.20781 24.684 5.05825 23.8695C4.90869 23.055 5.05555 22.2143 5.47274 21.4969L9.54769 14.5062C9.96614 13.788 10.6285 13.2402 11.4168 12.9604C12.2051 12.6807 13.0681 12.6871 13.852 12.9787L17.6725 14.3973C18.791 14.8111 20.032 14.6213 21.0531 14.0116C21.2793 13.8747 21.5118 13.7409 21.7443 13.6133C22.7874 13.044 23.5728 12.0733 23.7676 10.9098L24.44 6.92444Z" stroke="#4BA3E3" stroke-width="4" stroke-linecap="round" stroke-linejoin="round"/>
<path d="M41 32C41 34.3869 39.9991 36.6761 38.2175 38.364C36.4359 40.0518 34.0196 41 31.5 41C28.9804 41 26.5641 40.0518 24.7825 38.364C23.0009 36.6761 22 34.3869 22 32C22 29.6131 23.0009 27.3239 24.7825 25.636C26.5641 23.9482 28.9804 23 31.5 23C34.0196 23 36.4359 23.9482 38.2175 25.636C39.9991 27.3239 41 29.6131 41 32Z" stroke="#4BA3E3" stroke-width="4" stroke-linecap="round" stroke-linejoin="round"/>
</svg>
