<svg width="198" height="101" viewBox="0 0 198 101" fill="none" xmlns="http://www.w3.org/2000/svg">
<g filter="url(#filter0_d_168_271)">
<rect x="13" y="10" width="170" height="73" rx="10" fill="white"/>
<circle cx="24" cy="20" r="5" fill="#F367B9"/>
<circle cx="37" cy="20" r="5" fill="#FFE5F5"/>
<circle cx="50" cy="20" r="5" fill="#FFE5F5"/>
<path d="M112.953 29.7031H82.0469C81.3036 29.7031 80.7031 30.3036 80.7031 31.0469V61.9531C80.7031 62.6964 81.3036 63.2969 82.0469 63.2969H112.953C113.696 63.2969 114.297 62.6964 114.297 61.9531V31.0469C114.297 30.3036 113.696 29.7031 112.953 29.7031ZM97.5462 46.7562L89.4837 53.5169C89.2653 53.7017 88.9336 53.5463 88.9336 53.2607V50.6278C88.9336 50.5312 88.9798 50.4347 89.0554 50.3717L93.6661 46.5L89.0554 42.6283C89.0168 42.5978 88.9857 42.5589 88.9646 42.5145C88.9435 42.47 88.9329 42.4213 88.9336 42.3722V39.7393C88.9336 39.4537 89.2653 39.2983 89.4837 39.4831L97.5462 46.2396C97.71 46.374 97.71 46.6218 97.5462 46.7562ZM106.066 53.2607C106.066 53.4455 105.924 53.5967 105.751 53.5967H97.9829C97.8107 53.5967 97.668 53.4455 97.668 53.2607V51.2451C97.668 51.0604 97.8107 50.9092 97.9829 50.9092H105.751C105.924 50.9092 106.066 51.0604 106.066 51.2451V53.2607Z" fill="#F367B9"/>
</g>
<defs>
<filter id="filter0_d_168_271" x="0" y="0" width="198" height="101" filterUnits="userSpaceOnUse" color-interpolation-filters="sRGB">
<feFlood flood-opacity="0" result="BackgroundImageFix"/>
<feColorMatrix in="SourceAlpha" type="matrix" values="0 0 0 0 0 0 0 0 0 0 0 0 0 0 0 0 0 0 127 0" result="hardAlpha"/>
<feMorphology radius="4" operator="dilate" in="SourceAlpha" result="effect1_dropShadow_168_271"/>
<feOffset dx="1" dy="4"/>
<feGaussianBlur stdDeviation="5"/>
<feComposite in2="hardAlpha" operator="out"/>
<feColorMatrix type="matrix" values="0 0 0 0 0 0 0 0 0 0 0 0 0 0 0 0 0 0 0.1 0"/>
<feBlend mode="normal" in2="BackgroundImageFix" result="effect1_dropShadow_168_271"/>
<feBlend mode="normal" in="SourceGraphic" in2="effect1_dropShadow_168_271" result="shape"/>
</filter>
</defs>
</svg>
