<svg width="250" height="57" viewBox="0 0 250 57" fill="none" xmlns="http://www.w3.org/2000/svg">
<g filter="url(#filter0_d_318_186)">
<rect x="9" y="6" width="230" height="37" rx="10" fill="white"/>
<circle cx="33.5" cy="24.5" r="12.5" fill="#63E6BE"/>
<rect x="57" y="16" width="89" height="7" rx="3.5" fill="#63E6BE"/>
<rect x="57" y="28" width="168" height="7" rx="3.5" fill="#DEEEE2"/>
<path d="M33.5 17.0625C35.4725 17.0625 37.3643 17.8461 38.7591 19.2409C40.1539 20.6357 40.9375 22.5275 40.9375 24.5C40.9375 26.4725 40.1539 28.3643 38.7591 29.7591C37.3643 31.1539 35.4725 31.9375 33.5 31.9375C31.5275 31.9375 29.6357 31.1539 28.2409 29.7591C26.8461 28.3643 26.0625 26.4725 26.0625 24.5C26.0625 22.5275 26.8461 20.6357 28.2409 19.2409C29.6357 17.8461 31.5275 17.0625 33.5 17.0625ZM32.5735 25.9673L30.9213 24.3141C30.8621 24.2548 30.7918 24.2078 30.7144 24.1758C30.637 24.1437 30.554 24.1272 30.4703 24.1272C30.3865 24.1272 30.3036 24.1437 30.2262 24.1758C30.1488 24.2078 30.0785 24.2548 30.0192 24.3141C29.8996 24.4337 29.8324 24.5959 29.8324 24.7651C29.8324 24.9343 29.8996 25.0965 30.0192 25.2161L32.123 27.3199C32.1821 27.3794 32.2523 27.4266 32.3297 27.4589C32.4071 27.4911 32.4902 27.5077 32.574 27.5077C32.6579 27.5077 32.7409 27.4911 32.8183 27.4589C32.8957 27.4266 32.966 27.3794 33.0251 27.3199L37.3813 22.9626C37.4413 22.9036 37.4891 22.8333 37.5218 22.7558C37.5545 22.6782 37.5716 22.595 37.572 22.5108C37.5724 22.4267 37.5561 22.3433 37.5241 22.2655C37.4921 22.1876 37.445 22.1169 37.3855 22.0574C37.3261 21.9978 37.2554 21.9506 37.1776 21.9185C37.0998 21.8865 37.0164 21.8701 36.9323 21.8704C36.8481 21.8707 36.7648 21.8876 36.6873 21.9202C36.6097 21.9529 36.5394 22.0005 36.4803 22.0605L32.5735 25.9673Z" fill="#DEEEE2"/>
</g>
<defs>
<filter id="filter0_d_318_186" x="0" y="0" width="250" height="57" filterUnits="userSpaceOnUse" color-interpolation-filters="sRGB">
<feFlood flood-opacity="0" result="BackgroundImageFix"/>
<feColorMatrix in="SourceAlpha" type="matrix" values="0 0 0 0 0 0 0 0 0 0 0 0 0 0 0 0 0 0 127 0" result="hardAlpha"/>
<feOffset dx="1" dy="4"/>
<feGaussianBlur stdDeviation="5"/>
<feComposite in2="hardAlpha" operator="out"/>
<feColorMatrix type="matrix" values="0 0 0 0 0 0 0 0 0 0 0 0 0 0 0 0 0 0 0.1 0"/>
<feBlend mode="normal" in2="BackgroundImageFix" result="effect1_dropShadow_318_186"/>
<feBlend mode="normal" in="SourceGraphic" in2="effect1_dropShadow_318_186" result="shape"/>
</filter>
</defs>
</svg>
