<svg width="189" height="117" viewBox="0 0 189 117" fill="none" xmlns="http://www.w3.org/2000/svg">
<g filter="url(#filter0_d_318_202)">
<rect x="13" y="10" width="161" height="89" rx="8" fill="white"/>
</g>
<path d="M13 41H174V91C174 95.4183 170.418 99 166 99H21C16.5817 99 13 95.4183 13 91V41Z" fill="#E4DBFF"/>
<rect x="122" y="57" width="31" height="5" rx="2.5" fill="#9570FF"/>
<rect x="77" y="57" width="31" height="5" rx="2.5" fill="#9570FF"/>
<rect x="34" y="57" width="31" height="5" rx="2.5" fill="#9570FF"/>
<rect x="77" y="67" width="31" height="5" rx="2.5" fill="#C5B2FB"/>
<rect x="34" y="67" width="31" height="5" rx="2.5" fill="#C5B2FB"/>
<rect x="77" y="77" width="31" height="5" rx="2.5" fill="#C5B2FB"/>
<rect x="34" y="77" width="31" height="5" rx="2.5" fill="#C5B2FB"/>
<rect x="122" y="67" width="31" height="5" rx="2.5" fill="#C5B2FB"/>
<rect x="122" y="77" width="31" height="5" rx="2.5" fill="#C5B2FB"/>
<defs>
<filter id="filter0_d_318_202" x="0" y="0" width="189" height="117" filterUnits="userSpaceOnUse" color-interpolation-filters="sRGB">
<feFlood flood-opacity="0" result="BackgroundImageFix"/>
<feColorMatrix in="SourceAlpha" type="matrix" values="0 0 0 0 0 0 0 0 0 0 0 0 0 0 0 0 0 0 127 0" result="hardAlpha"/>
<feMorphology radius="4" operator="dilate" in="SourceAlpha" result="effect1_dropShadow_318_202"/>
<feOffset dx="1" dy="4"/>
<feGaussianBlur stdDeviation="5"/>
<feComposite in2="hardAlpha" operator="out"/>
<feColorMatrix type="matrix" values="0 0 0 0 0 0 0 0 0 0 0 0 0 0 0 0 0 0 0.1 0"/>
<feBlend mode="normal" in2="BackgroundImageFix" result="effect1_dropShadow_318_202"/>
<feBlend mode="normal" in="SourceGraphic" in2="effect1_dropShadow_318_202" result="shape"/>
</filter>
</defs>
</svg>
