<svg width="251" height="120" viewBox="0 0 251 120" fill="none" xmlns="http://www.w3.org/2000/svg">
<g filter="url(#filter0_d_318_196)">
<rect x="13" y="10" width="223" height="92" rx="10" fill="white"/>
<path d="M40 47C34.477 47 30 42.523 30 37C30 31.477 34.477 27 40 27C45.523 27 50 31.477 50 37C50 42.523 45.523 47 40 47ZM39.003 41L46.073 33.929L44.66 32.515L39.003 38.172L36.174 35.343L34.76 36.757L39.003 41Z" fill="#FFE074"/>
<circle cx="40.5" cy="69.5" r="10.5" fill="#F3ECD7"/>
<rect x="61" y="29" width="78" height="7" rx="3.5" fill="#F3ECD7"/>
<rect x="61" y="63" width="78" height="7" rx="3.5" fill="#F3ECD7"/>
<rect x="61" y="39" width="156" height="7" rx="3.5" fill="#F3ECD7"/>
<rect x="61" y="73" width="156" height="7" rx="3.5" fill="#F3ECD7"/>
</g>
<defs>
<filter id="filter0_d_318_196" x="0" y="0" width="251" height="120" filterUnits="userSpaceOnUse" color-interpolation-filters="sRGB">
<feFlood flood-opacity="0" result="BackgroundImageFix"/>
<feColorMatrix in="SourceAlpha" type="matrix" values="0 0 0 0 0 0 0 0 0 0 0 0 0 0 0 0 0 0 127 0" result="hardAlpha"/>
<feMorphology radius="4" operator="dilate" in="SourceAlpha" result="effect1_dropShadow_318_196"/>
<feOffset dx="1" dy="4"/>
<feGaussianBlur stdDeviation="5"/>
<feComposite in2="hardAlpha" operator="out"/>
<feColorMatrix type="matrix" values="0 0 0 0 0 0 0 0 0 0 0 0 0 0 0 0 0 0 0.1 0"/>
<feBlend mode="normal" in2="BackgroundImageFix" result="effect1_dropShadow_318_196"/>
<feBlend mode="normal" in="SourceGraphic" in2="effect1_dropShadow_318_196" result="shape"/>
</filter>
</defs>
</svg>
