<svg width="184" height="130" viewBox="0 0 184 130" fill="none" xmlns="http://www.w3.org/2000/svg">
<g filter="url(#filter0_d_318_190)">
<rect x="13" y="10" width="156" height="101.878" rx="10" fill="white"/>
<rect x="144" y="47" width="16" height="16" rx="8" fill="#63E6BE"/>
<rect x="145" y="19" width="15" height="15" rx="7.5" fill="#DEEEE2"/>
<rect x="21" y="96" width="139" height="6" rx="3" fill="#63E6BE"/>
<rect x="21" y="83" width="139" height="6" rx="3" fill="#63E6BE"/>
<rect x="21" y="70" width="139" height="6" rx="3" fill="#63E6BE"/>
<rect x="21" y="48" width="113" height="13" rx="6.5" fill="#63E6BE"/>
<rect x="21" y="20" width="113" height="13" rx="6.5" fill="#DEEEE2"/>
<path d="M13 40H169" stroke="#DEEEE2"/>
<path d="M156.167 52L152 56.2857L147.833 52L147 52.8571L152 58L157 52.8571L156.167 52Z" fill="#159873"/>
</g>
<defs>
<filter id="filter0_d_318_190" x="0" y="0" width="184" height="129.877" filterUnits="userSpaceOnUse" color-interpolation-filters="sRGB">
<feFlood flood-opacity="0" result="BackgroundImageFix"/>
<feColorMatrix in="SourceAlpha" type="matrix" values="0 0 0 0 0 0 0 0 0 0 0 0 0 0 0 0 0 0 127 0" result="hardAlpha"/>
<feMorphology radius="4" operator="dilate" in="SourceAlpha" result="effect1_dropShadow_318_190"/>
<feOffset dx="1" dy="4"/>
<feGaussianBlur stdDeviation="5"/>
<feComposite in2="hardAlpha" operator="out"/>
<feColorMatrix type="matrix" values="0 0 0 0 0 0 0 0 0 0 0 0 0 0 0 0 0 0 0.1 0"/>
<feBlend mode="normal" in2="BackgroundImageFix" result="effect1_dropShadow_318_190"/>
<feBlend mode="normal" in="SourceGraphic" in2="effect1_dropShadow_318_190" result="shape"/>
</filter>
</defs>
</svg>
