<svg width="97" height="124" viewBox="0 0 97 124" fill="none" xmlns="http://www.w3.org/2000/svg">
<g filter="url(#filter0_d_159_222)">
<g clip-path="url(#clip0_159_222)">
<rect x="3" width="89" height="116" rx="8" fill="white"/>
<path d="M80.1332 7.43579H14.8665C12.4088 7.43579 10.4165 9.43329 10.4165 11.8973V47.5896C10.4165 50.0537 12.4088 52.0512 14.8665 52.0512H80.1332C82.5908 52.0512 84.5832 50.0537 84.5832 47.5896V11.8973C84.5832 9.43329 82.5908 7.43579 80.1332 7.43579Z" fill="#63E6BE"/>
<path opacity="0.2" fill-rule="evenodd" clip-rule="evenodd" d="M54.2924 35.0402V24.447C54.2924 23.6142 53.613 22.9338 52.7831 22.9338H42.2173C41.3866 22.9338 40.708 23.615 40.708 24.447V35.0402C40.708 35.873 41.3874 36.5534 42.2173 36.5534H52.7831C53.6138 36.5534 54.2924 35.8723 54.2924 35.0402ZM44.8584 30.8784L46.7452 33.156L49.387 29.7436L52.7831 34.2832H42.2173L44.8584 30.8784Z" fill="white"/>
<g opacity="0.5">
<path d="M35.6332 63.9487H12.6415C11.4127 63.9487 10.4165 64.9475 10.4165 66.1795C10.4165 67.4115 11.4127 68.4103 12.6415 68.4103H35.6332C36.862 68.4103 37.8582 67.4115 37.8582 66.1795C37.8582 64.9475 36.862 63.9487 35.6332 63.9487Z" fill="#63E6BE"/>
<path d="M51.9497 63.9487H43.7914C42.5626 63.9487 41.5664 64.9475 41.5664 66.1795C41.5664 67.4115 42.5626 68.4103 43.7914 68.4103H51.9497C53.1786 68.4103 54.1747 67.4115 54.1747 66.1795C54.1747 64.9475 53.1786 63.9487 51.9497 63.9487Z" fill="#63E6BE"/>
<path d="M64.5583 63.9487H60.1083C58.8795 63.9487 57.8833 64.9475 57.8833 66.1795C57.8833 67.4115 58.8795 68.4103 60.1083 68.4103H64.5583C65.7871 68.4103 66.7833 67.4115 66.7833 66.1795C66.7833 64.9475 65.7871 63.9487 64.5583 63.9487Z" fill="#63E6BE"/>
</g>
<path d="M20.7998 78.0769H11.8998C11.0806 78.0769 10.4165 78.7427 10.4165 79.5641C10.4165 80.3854 11.0806 81.0513 11.8998 81.0513H20.7998C21.6191 81.0513 22.2832 80.3854 22.2832 79.5641C22.2832 78.7427 21.6191 78.0769 20.7998 78.0769Z" fill="#DEEEE2"/>
<path d="M57.1417 78.0769H28.2167C27.3975 78.0769 26.7334 78.7427 26.7334 79.5641C26.7334 80.3854 27.3975 81.0513 28.2167 81.0513H57.1417C57.961 81.0513 58.6251 80.3854 58.6251 79.5641C58.6251 78.7427 57.961 78.0769 57.1417 78.0769Z" fill="#DEEEE2"/>
<path d="M83.1002 78.0769H64.5585C63.7393 78.0769 63.0752 78.7427 63.0752 79.5641C63.0752 80.3854 63.7393 81.0513 64.5585 81.0513H83.1002C83.9194 81.0513 84.5835 80.3854 84.5835 79.5641C84.5835 78.7427 83.9194 78.0769 83.1002 78.0769Z" fill="#DEEEE2"/>
<path d="M29.6998 86.2563H11.8998C11.0806 86.2563 10.4165 86.9222 10.4165 87.7435C10.4165 88.5649 11.0806 89.2307 11.8998 89.2307H29.6998C30.5191 89.2307 31.1832 88.5649 31.1832 87.7435C31.1832 86.9222 30.5191 86.2563 29.6998 86.2563Z" fill="#DEEEE2"/>
<path d="M58.625 86.2563H37.1166C36.2974 86.2563 35.6333 86.9222 35.6333 87.7435C35.6333 88.5649 36.2974 89.2307 37.1166 89.2307H58.625C59.4442 89.2307 60.1083 88.5649 60.1083 87.7435C60.1083 86.9222 59.4442 86.2563 58.625 86.2563Z" fill="#DEEEE2"/>
<path d="M83.0998 86.2563H66.0414C65.2222 86.2563 64.5581 86.9222 64.5581 87.7435C64.5581 88.5649 65.2222 89.2307 66.0414 89.2307H83.0998C83.919 89.2307 84.5831 88.5649 84.5831 87.7435C84.5831 86.9222 83.919 86.2563 83.0998 86.2563Z" fill="#DEEEE2"/>
<g opacity="0.1">
<path d="M14.1248 108.564C16.1729 108.564 17.8332 106.899 17.8332 104.846C17.8332 102.793 16.1729 101.128 14.1248 101.128C12.0768 101.128 10.4165 102.793 10.4165 104.846C10.4165 106.899 12.0768 108.564 14.1248 108.564Z" fill="#63E6BE"/>
<path d="M40.454 103.731H23.3957C22.7813 103.731 22.2832 104.23 22.2832 104.846C22.2832 105.462 22.7813 105.961 23.3957 105.961H40.454C41.0685 105.961 41.5665 105.462 41.5665 104.846C41.5665 104.23 41.0685 103.731 40.454 103.731Z" fill="#63E6BE"/>
</g>
</g>
</g>
<defs>
<filter id="filter0_d_159_222" x="0" y="0" width="97" height="124" filterUnits="userSpaceOnUse" color-interpolation-filters="sRGB">
<feFlood flood-opacity="0" result="BackgroundImageFix"/>
<feColorMatrix in="SourceAlpha" type="matrix" values="0 0 0 0 0 0 0 0 0 0 0 0 0 0 0 0 0 0 127 0" result="hardAlpha"/>
<feOffset dx="1" dy="4"/>
<feGaussianBlur stdDeviation="2"/>
<feComposite in2="hardAlpha" operator="out"/>
<feColorMatrix type="matrix" values="0 0 0 0 0 0 0 0 0 0 0 0 0 0 0 0 0 0 0.1 0"/>
<feBlend mode="normal" in2="BackgroundImageFix" result="effect1_dropShadow_159_222"/>
<feBlend mode="normal" in="SourceGraphic" in2="effect1_dropShadow_159_222" result="shape"/>
</filter>
<clipPath id="clip0_159_222">
<rect x="3" width="89" height="116" rx="8" fill="white"/>
</clipPath>
</defs>
</svg>
