<svg width="250" height="131" viewBox="0 0 250 131" fill="none" xmlns="http://www.w3.org/2000/svg">
<g filter="url(#filter0_d_318_193)">
<rect x="13" y="10" width="222" height="103" rx="8" fill="white"/>
</g>
<rect x="26" y="25" width="54" height="10" rx="5" fill="#63E6BE"/>
<rect x="98" y="25" width="54" height="10" rx="5" fill="#63E6BE"/>
<rect x="170" y="25" width="54" height="10" rx="5" fill="#63E6BE"/>
<rect x="26" y="46" width="54" height="10" rx="5" fill="#DEEEE2"/>
<rect x="98" y="46" width="54" height="10" rx="5" fill="#DEEEE2"/>
<rect x="170" y="46" width="54" height="10" rx="5" fill="#DEEEE2"/>
<rect x="26" y="67" width="54" height="10" rx="5" fill="#DEEEE2"/>
<rect x="98" y="67" width="54" height="10" rx="5" fill="#DEEEE2"/>
<rect x="170" y="67" width="54" height="10" rx="5" fill="#DEEEE2"/>
<rect x="26" y="87" width="54" height="10" rx="5" fill="#DEEEE2"/>
<rect x="98" y="87" width="54" height="10" rx="5" fill="#DEEEE2"/>
<rect x="170" y="87" width="54" height="10" rx="5" fill="#DEEEE2"/>
<defs>
<filter id="filter0_d_318_193" x="0" y="0" width="250" height="131" filterUnits="userSpaceOnUse" color-interpolation-filters="sRGB">
<feFlood flood-opacity="0" result="BackgroundImageFix"/>
<feColorMatrix in="SourceAlpha" type="matrix" values="0 0 0 0 0 0 0 0 0 0 0 0 0 0 0 0 0 0 127 0" result="hardAlpha"/>
<feMorphology radius="4" operator="dilate" in="SourceAlpha" result="effect1_dropShadow_318_193"/>
<feOffset dx="1" dy="4"/>
<feGaussianBlur stdDeviation="5"/>
<feComposite in2="hardAlpha" operator="out"/>
<feColorMatrix type="matrix" values="0 0 0 0 0 0 0 0 0 0 0 0 0 0 0 0 0 0 0.1 0"/>
<feBlend mode="normal" in2="BackgroundImageFix" result="effect1_dropShadow_318_193"/>
<feBlend mode="normal" in="SourceGraphic" in2="effect1_dropShadow_318_193" result="shape"/>
</filter>
</defs>
</svg>
