<svg width="113" height="41" viewBox="0 0 113 41" fill="none" xmlns="http://www.w3.org/2000/svg">
<g filter="url(#filter0_d_318_187)">
<circle cx="18.5" cy="18.5" r="16.5" fill="white"/>
<circle cx="18.5" cy="18.5" r="16" stroke="#0AAA53"/>
</g>
<rect width="20" height="20" transform="translate(8 9)" fill="white"/>
<path d="M26.0413 26.1874C25.9864 26.2825 25.9075 26.3614 25.8124 26.4162C25.7174 26.4711 25.6096 26.5 25.4998 26.4999H10.4998C10.3902 26.4998 10.2825 26.4709 10.1876 26.416C10.0926 26.3611 10.0138 26.2821 9.95906 26.1872C9.90428 26.0922 9.87546 25.9844 9.87549 25.8748C9.87552 25.7651 9.90439 25.6574 9.95922 25.5624C11.1491 23.5054 12.9827 22.0304 15.1225 21.3312C14.064 20.7011 13.2417 19.7409 12.7817 18.5982C12.3217 17.4555 12.2496 16.1934 12.5764 15.0057C12.9031 13.818 13.6107 12.7704 14.5905 12.0238C15.5703 11.2772 16.768 10.8728 17.9998 10.8728C19.2317 10.8728 20.4294 11.2772 21.4092 12.0238C22.389 12.7704 23.0966 13.818 23.4233 15.0057C23.7501 16.1934 23.678 17.4555 23.218 18.5982C22.758 19.7409 21.9357 20.7011 20.8772 21.3312C23.017 22.0304 24.8506 23.5054 26.0405 25.5624C26.0954 25.6574 26.1245 25.7651 26.1246 25.8748C26.1247 25.9845 26.096 26.0923 26.0413 26.1874Z" fill="#DEEEE2"/>
<g filter="url(#filter1_d_318_187)">
<circle cx="42.5" cy="18.5" r="16.5" fill="white"/>
<circle cx="42.5" cy="18.5" r="16" stroke="#0AAA53"/>
</g>
<rect width="20" height="20" transform="translate(33 9)" fill="white"/>
<path d="M51.0413 26.1874C50.9864 26.2825 50.9075 26.3614 50.8124 26.4162C50.7174 26.4711 50.6096 26.5 50.4998 26.4999H35.4998C35.3902 26.4998 35.2825 26.4709 35.1876 26.416C35.0926 26.3611 35.0138 26.2821 34.9591 26.1872C34.9043 26.0922 34.8755 25.9844 34.8755 25.8748C34.8755 25.7651 34.9044 25.6574 34.9592 25.5624C36.1491 23.5054 37.9827 22.0304 40.1225 21.3312C39.064 20.7011 38.2417 19.7409 37.7817 18.5982C37.3217 17.4555 37.2496 16.1934 37.5764 15.0057C37.9031 13.818 38.6107 12.7704 39.5905 12.0238C40.5703 11.2772 41.768 10.8728 42.9998 10.8728C44.2317 10.8728 45.4294 11.2772 46.4092 12.0238C47.389 12.7704 48.0966 13.818 48.4233 15.0057C48.7501 16.1934 48.678 17.4555 48.218 18.5982C47.758 19.7409 46.9357 20.7011 45.8772 21.3312C48.017 22.0304 49.8506 23.5054 51.0405 25.5624C51.0954 25.6574 51.1245 25.7651 51.1246 25.8748C51.1247 25.9845 51.096 26.0923 51.0413 26.1874Z" fill="#DEEEE2"/>
<g filter="url(#filter2_d_318_187)">
<circle cx="66.5" cy="18.5" r="16.5" fill="white"/>
<circle cx="66.5" cy="18.5" r="16" stroke="#0AAA53"/>
</g>
<rect width="20" height="20" transform="translate(57 9)" fill="white"/>
<path d="M75.0413 26.1874C74.9864 26.2825 74.9075 26.3614 74.8124 26.4162C74.7174 26.4711 74.6096 26.5 74.4998 26.4999H59.4998C59.3902 26.4998 59.2825 26.4709 59.1876 26.416C59.0926 26.3611 59.0138 26.2821 58.9591 26.1872C58.9043 26.0922 58.8755 25.9844 58.8755 25.8748C58.8755 25.7651 58.9044 25.6574 58.9592 25.5624C60.1491 23.5054 61.9827 22.0304 64.1225 21.3312C63.064 20.7011 62.2417 19.7409 61.7817 18.5982C61.3217 17.4555 61.2496 16.1934 61.5764 15.0057C61.9031 13.818 62.6107 12.7704 63.5905 12.0238C64.5703 11.2772 65.768 10.8728 66.9998 10.8728C68.2317 10.8728 69.4294 11.2772 70.4092 12.0238C71.389 12.7704 72.0966 13.818 72.4233 15.0057C72.7501 16.1934 72.678 17.4555 72.218 18.5982C71.758 19.7409 70.9357 20.7011 69.8772 21.3312C72.017 22.0304 73.8506 23.5054 75.0405 25.5624C75.0954 25.6574 75.1245 25.7651 75.1246 25.8748C75.1247 25.9845 75.096 26.0923 75.0413 26.1874Z" fill="#DEEEE2"/>
<g filter="url(#filter3_d_318_187)">
<circle cx="90.5" cy="18.5" r="16.5" fill="white"/>
<circle cx="90.5" cy="18.5" r="16" stroke="#85D5A9"/>
</g>
<rect width="20" height="20" transform="translate(81 9)" fill="white"/>
<path d="M99.0413 26.1874C98.9864 26.2825 98.9075 26.3614 98.8124 26.4162C98.7174 26.4711 98.6096 26.5 98.4998 26.4999H83.4998C83.3902 26.4998 83.2825 26.4709 83.1876 26.416C83.0926 26.3611 83.0138 26.2821 82.9591 26.1872C82.9043 26.0922 82.8755 25.9844 82.8755 25.8748C82.8755 25.7651 82.9044 25.6574 82.9592 25.5624C84.1491 23.5054 85.9827 22.0304 88.1225 21.3312C87.064 20.7011 86.2417 19.7409 85.7817 18.5982C85.3217 17.4555 85.2496 16.1934 85.5764 15.0057C85.9031 13.818 86.6107 12.7704 87.5905 12.0238C88.5703 11.2772 89.768 10.8728 90.9998 10.8728C92.2317 10.8728 93.4294 11.2772 94.4092 12.0238C95.389 12.7704 96.0966 13.818 96.4233 15.0057C96.7501 16.1934 96.678 17.4555 96.218 18.5982C95.758 19.7409 94.9357 20.7011 93.8772 21.3312C96.017 22.0304 97.8506 23.5054 99.0405 25.5624C99.0954 25.6574 99.1245 25.7651 99.1246 25.8748C99.1247 25.9845 99.096 26.0923 99.0413 26.1874Z" fill="#63E6BE"/>
<defs>
<filter id="filter0_d_318_187" x="0" y="0" width="41" height="41" filterUnits="userSpaceOnUse" color-interpolation-filters="sRGB">
<feFlood flood-opacity="0" result="BackgroundImageFix"/>
<feColorMatrix in="SourceAlpha" type="matrix" values="0 0 0 0 0 0 0 0 0 0 0 0 0 0 0 0 0 0 127 0" result="hardAlpha"/>
<feOffset dx="2" dy="2"/>
<feGaussianBlur stdDeviation="2"/>
<feComposite in2="hardAlpha" operator="out"/>
<feColorMatrix type="matrix" values="0 0 0 0 0 0 0 0 0 0 0 0 0 0 0 0 0 0 0.1 0"/>
<feBlend mode="normal" in2="BackgroundImageFix" result="effect1_dropShadow_318_187"/>
<feBlend mode="normal" in="SourceGraphic" in2="effect1_dropShadow_318_187" result="shape"/>
</filter>
<filter id="filter1_d_318_187" x="24" y="0" width="41" height="41" filterUnits="userSpaceOnUse" color-interpolation-filters="sRGB">
<feFlood flood-opacity="0" result="BackgroundImageFix"/>
<feColorMatrix in="SourceAlpha" type="matrix" values="0 0 0 0 0 0 0 0 0 0 0 0 0 0 0 0 0 0 127 0" result="hardAlpha"/>
<feOffset dx="2" dy="2"/>
<feGaussianBlur stdDeviation="2"/>
<feComposite in2="hardAlpha" operator="out"/>
<feColorMatrix type="matrix" values="0 0 0 0 0 0 0 0 0 0 0 0 0 0 0 0 0 0 0.1 0"/>
<feBlend mode="normal" in2="BackgroundImageFix" result="effect1_dropShadow_318_187"/>
<feBlend mode="normal" in="SourceGraphic" in2="effect1_dropShadow_318_187" result="shape"/>
</filter>
<filter id="filter2_d_318_187" x="48" y="0" width="41" height="41" filterUnits="userSpaceOnUse" color-interpolation-filters="sRGB">
<feFlood flood-opacity="0" result="BackgroundImageFix"/>
<feColorMatrix in="SourceAlpha" type="matrix" values="0 0 0 0 0 0 0 0 0 0 0 0 0 0 0 0 0 0 127 0" result="hardAlpha"/>
<feOffset dx="2" dy="2"/>
<feGaussianBlur stdDeviation="2"/>
<feComposite in2="hardAlpha" operator="out"/>
<feColorMatrix type="matrix" values="0 0 0 0 0 0 0 0 0 0 0 0 0 0 0 0 0 0 0.1 0"/>
<feBlend mode="normal" in2="BackgroundImageFix" result="effect1_dropShadow_318_187"/>
<feBlend mode="normal" in="SourceGraphic" in2="effect1_dropShadow_318_187" result="shape"/>
</filter>
<filter id="filter3_d_318_187" x="72" y="0" width="41" height="41" filterUnits="userSpaceOnUse" color-interpolation-filters="sRGB">
<feFlood flood-opacity="0" result="BackgroundImageFix"/>
<feColorMatrix in="SourceAlpha" type="matrix" values="0 0 0 0 0 0 0 0 0 0 0 0 0 0 0 0 0 0 127 0" result="hardAlpha"/>
<feOffset dx="2" dy="2"/>
<feGaussianBlur stdDeviation="2"/>
<feComposite in2="hardAlpha" operator="out"/>
<feColorMatrix type="matrix" values="0 0 0 0 0 0 0 0 0 0 0 0 0 0 0 0 0 0 0.1 0"/>
<feBlend mode="normal" in2="BackgroundImageFix" result="effect1_dropShadow_318_187"/>
<feBlend mode="normal" in="SourceGraphic" in2="effect1_dropShadow_318_187" result="shape"/>
</filter>
</defs>
</svg>
