<svg width="193" height="28" viewBox="0 0 193 28" fill="none" xmlns="http://www.w3.org/2000/svg">
<path d="M0.517344 13.6C0.517344 9.56 1.39734 6.32 3.19734 3.84C4.99734 1.36 7.59734 0.119998 10.9973 0.119998C14.3973 0.119998 16.9973 1.36 18.7573 3.84C20.5573 6.32 21.4373 9.56 21.4373 13.6C21.4373 21.4 17.9173 27.48 10.9973 27.48C4.03734 27.48 0.517344 21.4 0.517344 13.6ZM15.8773 13.64C15.8773 8.04 14.3573 5.12 10.9973 5.12C7.59734 5.12 6.07734 8.04 6.07734 13.64C6.07734 19.52 7.71734 22.48 10.9973 22.48C14.2373 22.48 15.8773 19.52 15.8773 13.64ZM44.628 9.6C44.628 11.08 44.348 12.36 43.748 13.52C43.188 14.68 42.268 16.12 40.988 17.88L34.428 27H28.028L34.148 18.52H33.948C29.588 18.64 25.108 14.68 25.228 9.56C25.108 4.24 29.828 0.039999 34.908 0.119998C40.108 0.119998 44.628 4.12 44.628 9.6ZM39.268 9.56C39.268 7.04 37.348 5.08 34.908 5.08C32.508 5.08 30.548 7 30.548 9.56C30.548 12.08 32.508 14 34.908 14C37.348 14 39.268 12.08 39.268 9.56ZM59.2198 10.56C59.2198 8.48 60.8598 6.84 62.9798 6.84C65.0598 6.84 66.6598 8.48 66.6598 10.56C66.6598 12.68 65.0998 14.28 62.9798 14.28C60.8598 14.28 59.2198 12.68 59.2198 10.56ZM59.2198 23.76C59.2198 21.68 60.8598 20.04 62.9798 20.04C65.0598 20.04 66.6598 21.68 66.6598 23.76C66.6598 25.88 65.0998 27.48 62.9798 27.48C60.8598 27.48 59.2198 25.88 59.2198 23.76ZM102.282 18.12V22.68H98.9217V27H93.5217V22.68H80.4017V21.24L88.5617 0.599999H94.1217L87.1217 18.12H93.5217V10.72H98.9217V18.12H102.282ZM123.608 18.32C123.608 23.72 119.128 27.48 113.488 27.48C109.008 27.48 105.488 25.12 103.688 21.48L107.448 18.84C109.008 21.24 110.768 22.48 113.328 22.48C116.048 22.48 118.048 20.92 118.048 18.4C118.048 15.88 116.168 14.6 112.648 14.6H106.488V0.599999H122.088V5.48H111.688V10.28C112.688 10.08 113.688 9.96 114.688 9.96C119.248 9.96 123.608 12.96 123.608 18.32ZM127.306 10.56C127.306 8.48 128.946 6.84 131.066 6.84C133.146 6.84 134.746 8.48 134.746 10.56C134.746 12.68 133.186 14.28 131.066 14.28C128.946 14.28 127.306 12.68 127.306 10.56ZM127.306 23.76C127.306 21.68 128.946 20.04 131.066 20.04C133.146 20.04 134.746 21.68 134.746 23.76C134.746 25.88 133.186 27.48 131.066 27.48C128.946 27.48 127.306 25.88 127.306 23.76ZM159.288 22.4H169.128V27L149.648 27.04V25.88L159.088 15.64C161.688 12.8 162.808 10.96 162.808 9C162.808 6.72 161.368 5.12 159.128 5.12C156.888 5.12 155.408 6.76 155.408 9.16C155.408 9.64 155.488 10.28 155.608 11.08H150.168C149.968 10.36 149.888 9.6 149.888 8.84C149.888 4.36 153.568 0.119998 159.208 0.119998C164.488 0.119998 168.368 3.76 168.368 8.56C168.368 10.36 167.888 12 166.928 13.56C165.968 15.08 164.568 16.84 162.688 18.8L159.288 22.4ZM192.847 19.96C192.847 24.56 188.727 27.48 182.967 27.48C177.167 27.48 173.047 24.56 173.047 19.96C173.047 16.92 174.767 14.72 178.247 13.32C175.567 11.76 174.247 9.72 174.247 7.12C174.247 4.92 175.047 3.24 176.687 2C178.327 0.759999 180.447 0.119998 182.967 0.119998C185.487 0.119998 187.567 0.759999 189.207 2C190.847 3.24 191.687 4.92 191.687 7.12C191.687 9.72 190.367 11.8 187.727 13.32C191.127 14.72 192.847 16.96 192.847 19.96ZM179.287 7.36C179.287 8.96 180.447 9.88 182.967 11.04C185.487 9.88 186.647 8.96 186.647 7.32C186.647 5.56 185.087 4.48 182.967 4.48C180.847 4.48 179.287 5.56 179.287 7.36ZM187.487 19.76C187.487 17.72 186.007 16.68 182.967 15.6C179.927 16.72 178.447 17.8 178.447 19.76C178.447 21.72 180.047 23.08 182.967 23.08C185.887 23.08 187.487 21.72 187.487 19.76Z" fill="white"/>
</svg>
